<svg viewBox="147.60000000000014 129.1500000000001 1180.8000000000002 1217.7000000000003" xmlns="http://www.w3.org/2000/svg" xmlns:xlink="http://www.w3.org/1999/xlink" overflow="visible" xmlns:blush="http://design.blush" width="1180.8000000000002px" height="1217.7000000000003px"><defs><polygon id="masterspot-illustrationstravel-international-path-1" points="0.366141848 0.943462941 566.595 0.943462941 566.595 296.4479 0.366141848 296.4479"/><polygon id="masterspot-illustrationstravel-international-path-3" points="0 0.105529701 69.9043696 0.105529701 69.9043696 66.8772992 0 66.8772992"/></defs><g id="Master/Spot Illustrations/Travel International" stroke="none" stroke-width="1" fill="none" fill-rule="evenodd" blush:i="0"><g id="group" transform="translate(162.000000, 142.000000)" blush:i="0.0"><path d="M565.7351,985.3811 C568.0691,982.0531 573.8201,978.7681 568.6181,977.0101 C565.3731,979.9621 560.3681,981.3581 565.7351,985.3811 M630.0451,1003.8911 C635.8961,1007.8871 637.7341,1018.8431 643.1581,1018.7701 C658.9691,1008.0881 641.4491,1003.9571 630.0451,1003.8911 M1076.7991,1090.8191 C1084.5961,1090.5601 1094.8421,1070.1121 1096.1511,1061.2141 C1083.0181,1064.1401 1078.6471,1079.2931 1076.7991,1090.8191 M224.3271,1110.0431 C243.6931,1101.4921 230.2331,1086.7881 213.6041,1092.4161 C205.6551,1098.5411 212.6601,1110.9431 224.3271,1110.0431 M426.3271,1131.7331 C426.4691,1114.5721 398.2821,1111.2811 398.8791,1132.8081 C398.9291,1149.5891 426.9201,1148.9911 426.3271,1131.7331 M115.1771,1012.1901 C116.0361,996.4421 84.7041,989.2161 86.0931,1012.1351 C86.4371,1032.4321 115.0361,1033.5191 115.1771,1012.1901 M419.3811,882.8211 C420.3001,866.6711 390.9611,863.6171 392.0361,883.2761 C392.2681,901.9461 419.4311,900.9471 419.3811,882.8211 M539.3891,1024.8611 C558.1551,1025.0061 559.8981,997.1401 539.1971,997.3241 C520.2141,996.0061 521.0931,1025.6021 539.3891,1024.8611 M287.7181,926.4811 C261.8231,927.3121 272.9301,964.1201 293.7341,963.7551 C318.5451,963.1831 312.7761,924.0381 287.7181,926.4811 M1005.1251,1088.0001 C1025.0671,1070.0471 1055.8231,1049.7891 1053.9371,1022.6201 C1027.4361,1029.7871 1010.0571,1060.6841 1005.1251,1088.0001 M967.1231,1018.9781 C951.2061,989.8681 922.0121,1059.5561 920.0831,1075.3901 C933.1691,1083.5201 962.2861,1036.3981 967.1231,1018.9781 M378.6641,1029.7571 C378.2541,1042.2421 378.8631,1043.2181 390.6031,1043.2921 C401.9851,1046.5631 388.5181,1068.5171 409.4881,1059.1971 C425.0441,1051.0561 415.8451,1071.8061 419.7421,1079.9951 C430.5541,1093.8171 431.5121,1067.1211 432.0781,1059.7981 C435.4551,1033.7091 410.7561,1053.2641 408.5181,1039.4611 C409.9111,1020.2011 386.1221,1039.9361 388.4441,1022.6381 C393.6391,998.2841 344.8181,1014.3721 364.9811,1022.8321 C373.3081,1019.1741 380.7261,1017.7391 378.6641,1029.7571 M302.1941,796.5191 C299.1561,820.3831 320.2541,802.6941 324.2451,814.8571 C325.3741,827.3991 327.9071,829.2591 340.1651,825.4841 C348.6741,822.4371 346.2151,830.0831 346.6051,834.5281 C359.8001,852.6531 363.1671,837.8101 359.0711,822.7161 C360.9221,798.9071 340.9941,819.0511 337.1671,806.4911 C337.9061,786.6291 317.3431,804.7861 313.7151,793.3211 C313.6261,786.6591 314.4071,776.2841 305.3101,775.8101 C296.9551,773.2291 270.4291,788.4891 287.4731,792.2361 C294.9611,789.1401 304.9921,782.7401 302.1941,796.5191 M168.9421,1053.6261 C191.1721,1058.4091 169.6811,1025.9601 187.7981,1030.4071 C217.0611,1026.9481 179.5481,1010.6571 220.6301,1009.4431 C213.6921,993.5491 179.7381,985.0581 189.3361,1012.6871 C189.3881,1027.6241 160.6511,1001.3431 169.7291,1035.6811 C170.3311,1052.2041 132.9121,1028.1861 140.0671,1053.3841 C143.5231,1061.3071 144.9171,1076.4111 154.9141,1077.9801 C164.2401,1067.1661 141.3931,1049.6751 168.9421,1053.6261 M879.2831,995.8481 C862.9381,949.6791 813.5321,1055.6391 820.2561,1076.1441 C851.0441,1060.6681 870.7491,1028.9071 879.2831,995.8481 M711.9041,1055.6981 C722.3831,1088.2791 794.4311,943.1101 750.3941,960.3121 C723.9381,984.4651 717.0291,1021.0131 711.9041,1055.6981 M576.3041,846.9571 C611.3071,831.6001 681.5281,837.3281 701.7871,806.8501 C700.4971,797.0491 720.1591,765.9051 706.0571,767.3751 C659.6861,789.2521 594.5591,789.0191 572.1061,841.2671 C569.9021,844.7861 570.3211,847.2561 576.3041,846.9571 M547.5821,895.073104 C590.7231,885.1331 647.4381,892.3301 683.9721,872.1681 C683.4121,862.3461 703.2741,830.7801 685.7831,833.9131 C643.0371,844.3781 595.3771,848.9411 556.0281,867.4171 C553.3971,874.0271 532.5011,895.0831 547.5821,895.073104 M881.8741,871.9921 C899.0621,869.6641 926.5311,878.8611 939.7741,867.6201 C939.4641,853.5071 970.0681,789.9331 952.8551,790.9251 C925.1451,797.5911 891.1081,792.8541 866.8221,807.5991 C836.8811,858.1351 793.2581,878.8611 881.8741,871.9921 M934.3431,692.9481 C865.1711,713.0921 788.9741,733.2051 725.5041,764.8161 C713.5651,811.7711 696.6831,822.4871 755.9191,808.4411 C882.2541,795.0561 863.5411,794.2791 934.3431,692.9481 M607.7541,790.6801 C642.3291,781.3591 675.8101,766.5311 710.0831,755.5631 C727.6651,740.2761 725.3881,709.0321 734.3131,687.7101 C731.7561,674.3161 673.8301,713.8941 659.8691,716.8821 C638.5961,735.0011 618.3491,770.2621 607.7541,790.6801 M467.8161,851.1621 C510.7351,830.1391 566.7811,819.8471 598.2061,782.7301 C602.4001,768.4631 634.5751,741.1441 625.4561,733.8611 C568.6751,767.2261 488.0771,781.4951 467.3961,852.0691 C467.5361,851.7671 467.6761,851.4651 467.8161,851.1621 M469.9791,882.4691 C478.5111,907.1831 511.2131,906.8541 528.5231,894.5721 C530.2771,887.8741 548.1991,870.2101 537.8841,868.6211 C527.7701,870.8421 455.7451,893.6581 475.4701,875.7881 C501.3221,866.6371 531.5191,863.7531 554.8561,849.8181 C609.9341,780.8711 499.6741,853.5941 469.8851,860.6221 C466.5791,862.0691 460.6221,862.6031 462.4161,867.3351 C464.3611,872.4641 460.3881,881.1421 469.9791,882.4691 M138.4681,865.8431 C223.5381,778.1131 170.4431,849.3371 219.2641,822.5111 C229.6351,788.3481 187.3061,807.0851 245.5671,766.4461 C247.0651,763.4601 251.7021,762.6871 254.0921,760.2441 C253.5901,757.0541 255.0731,754.5121 258.3331,752.6191 C270.2481,747.0921 275.4971,734.3851 288.6161,731.7341 C298.4981,720.7301 311.3001,706.5801 322.8431,698.9221 C332.2011,686.3351 335.9901,694.8301 345.9051,700.8461 C360.0071,706.0391 374.7321,694.2041 372.7031,679.2051 C371.8011,672.5441 374.0411,670.4701 379.4741,669.2671 C400.2621,664.4851 432.7621,672.9391 446.5521,686.5561 C439.5341,691.7221 440.2731,696.5001 444.4701,703.9761 C446.8251,708.1701 434.9091,713.8741 441.0011,721.5501 C442.6101,723.2131 443.5941,727.1661 442.6141,728.8791 C437.5981,734.2151 439.9641,738.7901 443.1821,743.8101 C444.7011,752.1701 449.5311,764.2991 458.1991,754.6601 C460.7161,750.1071 457.0601,741.4481 458.4771,736.8811 C465.7461,730.2031 455.4911,723.5411 458.7721,717.0951 C473.0321,713.6371 461.8981,695.9761 472.2851,692.6211 C494.0511,706.8901 522.3791,709.7291 540.5101,729.6381 C469.3711,823.9461 594.8481,729.2181 634.7861,717.3391 C648.2201,717.0951 685.9881,652.4531 681.6001,682.5811 C650.6431,721.4991 719.2751,675.7211 737.2951,669.4441 C749.1841,668.4451 759.5311,666.4341 747.8581,679.7001 C748.3211,692.3281 721.1601,747.7531 738.0871,746.1111 C780.8931,731.8131 824.9021,720.5481 866.3601,702.6211 C883.1711,700.3541 942.5791,685.9091 948.5661,671.9661 C957.4941,659.9641 961.5011,663.4441 970.0671,672.7611 C983.2881,676.6191 952.0181,682.6051 950.8011,691.3041 C938.9171,714.6491 877.7231,775.2391 886.1901,790.0031 C961.4501,778.1491 963.3701,797.1671 985.6951,716.8311 C987.4501,712.3551 990.6161,711.5031 992.5371,716.8191 C1005.2891,730.7901 965.8651,779.6971 988.1511,777.0371 C994.4441,774.9061 1012.9441,776.2351 1001.5491,784.0851 C958.3191,781.7911 967.4681,838.8321 953.1951,868.0531 C956.6541,881.8921 1016.1341,872.7551 1033.8081,880.5121 C1018.5821,889.4421 980.5491,880.3531 957.4451,882.1471 C942.5351,884.1521 947.4031,904.0531 941.5081,914.4571 C938.4851,922.3301 933.8151,922.4941 927.2091,918.2041 C926.8211,908.0431 944.5301,880.5671 926.5741,882.4691 C883.9331,876.4131 829.2371,895.4441 793.6341,873.9841 C823.5711,870.7511 831.2021,832.6371 849.2991,812.5921 C851.6731,795.3601 785.4661,819.4951 769.7641,817.8751 C750.3441,825.0441 717.6081,818.5651 705.7771,836.1181 C706.4401,847.4531 685.9551,876.2071 702.6181,878.3721 C699.6021,892.1751 687.6141,885.9981 688.1781,902.4281 C684.8071,910.7431 681.3211,918.9361 676.1741,926.3331 C661.4221,887.4841 714.2761,886.8391 621.9271,895.6961 C591.0641,904.5961 549.2521,895.0191 525.3181,917.3061 C512.7671,926.7271 524.0701,904.4401 511.3051,910.9341 C492.1231,908.4061 498.6901,933.7731 482.3731,931.6161 C451.9911,930.4291 465.0161,984.9161 477.2781,954.9301 C476.6081,934.8861 506.0271,955.1211 506.4301,929.5421 C510.6011,917.5961 525.9541,925.9831 534.0011,929.0591 C573.2641,938.2081 615.9971,931.5181 656.4601,934.4921 C674.1261,931.6801 669.6831,946.9241 666.5001,958.2391 C663.0061,952.4021 665.8421,943.4641 656.5191,944.9411 C626.7141,944.5891 596.9021,943.3461 567.0901,943.0301 C544.4711,947.0401 632.1391,1003.3121 645.4561,996.4691 C653.8721,999.1441 654.0061,991.7061 658.6471,987.0971 C658.9611,1004.4621 651.8471,1021.5741 653.4881,1039.5191 C648.8631,1083.1251 633.7881,1035.7531 617.0921,1058.0691 C613.4461,1061.6251 611.4061,1062.8101 607.2651,1058.2401 C597.1021,1043.6371 579.9851,1078.2721 589.2001,1083.2181 C591.2091,1083.7781 595.1261,1081.6381 596.4601,1079.5981 C600.3701,1067.7191 607.9761,1080.6911 617.1331,1074.0531 C627.7881,1060.7931 632.2041,1067.2561 644.7381,1074.3841 C653.9151,1082.2501 644.4491,1096.5371 648.5681,1106.8651 C735.4371,1074.9971 685.4451,1042.5991 725.2431,977.3221 C734.6141,949.9141 778.5701,934.3431 771.8811,976.7691 C767.6201,1004.8921 756.7911,1030.1691 738.1071,1051.8141 C732.2731,1062.8421 709.7661,1071.5741 718.4491,1085.3801 C735.9311,1113.6501 794.1031,1104.5411 808.5341,1079.7031 C804.6001,1051.2221 859.0631,934.4631 884.6401,989.5031 C887.3691,1029.4051 856.0981,1061.6391 826.7271,1084.3491 C807.8991,1097.7961 836.2871,1123.7301 853.5901,1117.9141 C925.0331,1104.1981 899.5251,1064.9581 935.1701,1020.4951 C997.1071,959.0451 972.7941,1062.5371 926.2801,1087.8171 C907.1171,1121.6091 969.6611,1112.2781 985.7321,1100.6041 C1002.6021,1074.1501 1005.7231,1037.2721 1038.0061,1019.0241 C1052.7441,1005.5521 1072.2101,1018.3111 1061.6451,1036.7441 C1050.7151,1061.5151 1028.7551,1077.3211 1010.1891,1095.9951 C987.4951,1134.0951 1071.8431,1126.8251 1064.8321,1091.6181 C1060.9041,1068.8621 1109.9611,1024.5811 1105.5061,1067.9081 C1085.6001,1100.2731 1057.3561,1121.9501 1111.1081,1139.3431 C1215.9411,1163.5961 1077.3681,1164.9121 1068.1761,1122.0351 C1052.6781,1113.5741 1022.7561,1157.3451 997.1391,1115.6641 C990.8711,1097.9441 941.8971,1146.5141 915.1191,1108.3601 C901.1951,1088.8211 838.7121,1168.7071 811.7141,1101.9471 C798.2791,1089.0081 739.9371,1141.5591 708.8691,1088.5901 C700.9501,1080.5371 668.5551,1111.9121 654.0181,1114.5581 C639.3651,1118.2931 660.4451,1163.6901 673.7271,1166.0611 C674.7421,1166.4591 676.0711,1168.7201 675.7581,1169.2801 C642.9641,1178.4221 603.6271,1172.0881 568.9541,1178.2621 C563.2171,1175.0741 559.0631,1171.6391 563.1041,1163.9821 C565.0731,1159.1431 556.0651,1148.9751 565.6501,1147.3621 C577.1571,1146.5901 571.3821,1130.4031 582.0131,1130.1771 C602.4671,1129.3331 592.1411,1116.9401 577.3791,1118.7581 C569.1331,1118.7211 565.9831,1120.8561 564.2951,1129.0171 C561.6911,1140.6341 541.3701,1136.9831 547.7651,1152.0331 C553.3221,1168.0601 531.3541,1166.1601 521.5091,1168.7041 C556.0901,1181.0781 459.5691,1169.8201 445.2441,1173.4561 C441.4991,1173.5131 435.8391,1175.4501 434.3671,1173.7181 C428.8281,1167.2011 429.5391,1177.6821 426.3681,1176.0681 C413.4401,1175.2711 400.9771,1171.2511 387.6791,1173.0561 C363.0591,1175.8441 346.4331,1172.9181 326.1291,1173.0911 C316.2601,1174.1321 304.3531,1177.6391 297.9291,1172.3781 C301.7801,1163.8221 285.6991,1151.6831 300.1261,1149.8391 C322.8521,1143.1921 293.0441,1125.3581 314.7681,1122.1131 C329.6751,1106.7901 274.7241,1109.9711 290.3331,1130.1401 C293.7051,1137.0941 293.7051,1137.0941 286.6291,1139.6131 C274.5011,1143.2501 274.5281,1150.9841 280.7491,1160.3491 C282.1331,1187.1551 182.4911,1170.9091 164.8581,1175.8531 C131.0231,1176.1441 99.7991,1175.6601 66.3981,1171.7681 C51.4211,1172.1491 63.9291,1140.6741 75.0921,1145.6591 C89.2631,1149.5521 102.7921,1133.0201 112.0481,1125.0721 C97.6731,1115.9261 85.9731,1137.7261 71.0451,1133.4601 C57.4751,1130.9881 54.8391,1142.1321 51.2741,1152.7651 C29.8311,1176.1361 28.4471,1120.5441 32.1171,1107.9971 C41.3121,1093.0121 38.0161,1075.7351 41.8241,1059.1091 C48.9691,1049.3641 42.4041,1038.7311 51.9391,1031.2221 C47.7601,1019.2431 57.7861,998.7491 60.4841,982.2971 C66.0151,946.7411 63.5731,932.4721 93.6511,910.6671 C102.5451,904.6211 122.0581,883.1811 127.5141,903.1771 C129.8131,914.7821 140.4191,911.4231 148.4021,907.9901 C148.6271,930.7941 171.0071,925.2271 176.5781,908.5421 C173.8651,900.3781 160.8461,921.5071 162.4721,904.5471 C162.0791,879.4421 144.0181,903.7751 138.4231,891.9771 C135.5091,882.7351 120.6041,878.5881 133.9331,870.4761 C135.2611,870.7691 136.8641,865.5581 139.0661,866.2641 C138.8661,866.1241 138.6671,865.9841 138.4681,865.8431" id="Fill-1" fill="#0542A8" blush:i="0.0.0"/><path d="M419.0529,291.2024 C416.8509,288.8864 415.7889,289.8704 414.6059,291.9284 C415.5499,294.7774 417.1999,293.2114 419.0529,291.2024 M207.4119,792.7204 C201.2089,784.9104 194.0929,783.9924 192.7429,794.9764 C195.7669,800.5464 201.9479,793.7804 207.4119,792.7204 M661.7029,389.5454 C637.0319,378.3894 609.9029,369.8094 586.0429,387.5834 C578.8399,396.4724 597.9959,411.0294 600.6159,421.4734 C611.3079,432.9024 646.6909,394.6614 661.7029,389.5454 M785.7739,327.6474 C818.6749,314.2064 817.0549,311.7364 793.4929,287.2634 C777.6769,271.9614 760.4479,258.0844 743.2779,244.3074 C734.5709,239.6274 730.5419,258.8794 725.8769,264.3054 C720.9609,275.2184 725.9369,289.1904 735.8459,291.7714 C759.6899,295.3474 765.1869,318.4014 785.7739,327.6474 M1031.4929,258.4684 C1052.2739,248.4064 1098.6199,242.4334 1052.5649,235.7564 C1035.9469,230.8444 1026.5129,250.5514 1012.4489,249.5874 C1011.8609,259.5784 1019.5479,262.2384 1031.4929,258.4684 M358.9609,249.7024 C355.5149,255.9784 329.2549,266.4274 341.4789,270.7724 C356.0299,271.0694 361.2559,296.6904 373.4089,289.2904 C390.5229,271.3034 387.5809,323.8374 401.6239,302.7084 C401.1299,290.4894 416.0359,306.6634 405.5189,286.0394 C405.0009,282.0654 412.6879,288.0534 412.0859,281.6684 C412.0159,280.9314 416.1269,279.8014 418.2999,278.8524 C413.9159,284.1664 422.5499,290.1784 418.1899,293.5554 C410.0569,299.1454 409.1169,315.4394 410.9729,323.8374 C411.3419,326.4104 410.6259,330.3664 412.0339,331.3464 C417.8989,335.4234 410.8539,342.6954 416.3569,346.4354 C408.7669,352.8934 404.9599,338.4984 397.6189,338.7254 C406.5689,348.9564 413.1239,367.0824 430.1329,362.1394 C438.5489,357.9044 457.3469,355.5264 454.3629,342.8324 C443.7749,324.5864 445.7659,290.8034 470.0079,285.7784 C511.2539,277.7104 536.9989,285.2774 539.0319,233.4754 C545.7719,205.8074 585.2129,215.4044 588.1529,186.7644 C508.7849,171.9644 421.8759,202.1524 358.9609,249.7024 M268.9039,745.4474 C260.3979,750.5574 253.4599,757.6574 244.3659,761.7504 C239.0579,746.5914 230.3529,769.4274 224.4439,773.7244 C219.3009,779.9294 201.3499,770.4234 206.9129,783.8894 C208.8349,789.4764 208.7169,795.7984 212.4889,798.3904 C199.4799,803.8974 181.2349,838.1134 175.5659,813.0764 C158.7349,765.1374 141.8309,717.2284 124.0029,669.6534 C81.8739,574.7924 130.3429,631.0044 140.6329,566.6804 C139.2419,541.7744 114.9269,532.4154 93.4729,531.2044 C57.8919,531.5194 62.7469,480.1864 47.6479,456.3524 C35.5879,420.5434 21.7149,384.0804 8.3709,347.5074 C-0.1151,329.2054 29.5819,327.8084 40.5119,321.3564 C113.2119,294.7404 185.9599,268.2534 258.7979,242.0194 C288.1999,227.2444 277.4689,303.5894 299.3149,289.0554 C404.6069,155.8864 614.0609,130.9134 750.7039,229.8014 C859.0539,304.0774 783.5389,325.2834 909.0719,272.7974 C912.3669,272.2724 914.7069,267.1834 918.1419,265.7904 C924.6319,263.3284 941.6579,267.8324 935.6799,255.5684 C936.8919,255.9464 939.3719,258.3264 939.8529,256.1074 C993.7939,255.7614 1037.0319,191.1744 1118.2439,243.8434 C1176.1949,292.8894 959.7409,352.3294 928.2899,377.4864 C902.2589,388.2494 918.9369,355.5154 936.8579,361.5684 C987.1029,328.4284 1053.5109,312.6544 1099.9639,277.4064 C1104.0779,273.8884 1110.8399,272.3164 1109.2789,264.5744 C1109.1829,264.0994 1110.6159,263.0564 1111.5079,262.6874 C1115.5779,261.0044 1115.7119,260.9364 1112.5669,258.0064 C1094.6299,238.6324 1095.4439,263.4774 1082.8669,252.8544 C1074.6939,257.5814 1059.2679,256.8324 1058.3849,268.2394 C1046.0129,271.3284 1033.2729,267.1644 1021.7219,273.4124 C1010.9489,277.7464 1007.0559,267.8864 1002.5289,260.6084 C990.5419,243.0524 920.6149,287.4694 898.9999,291.9914 C890.5209,292.8774 887.0979,301.4194 880.0649,304.4874 C878.1359,302.0684 870.1889,294.7824 873.6649,301.2964 C855.3169,313.7894 831.2329,318.5774 812.6119,330.1324 C812.4299,337.3184 806.3599,334.6624 802.9139,336.2894 C756.8829,348.1644 717.7469,379.7574 675.9529,397.4704 C645.2119,421.7474 593.3619,434.5014 579.7789,472.4744 C583.9759,487.3484 590.6149,461.5944 599.9869,461.6804 C603.3139,463.7124 608.8289,470.4914 599.6879,473.7074 C588.2159,488.6304 584.0449,510.5824 574.9859,527.5414 C585.0149,534.4164 611.4699,510.2874 626.6469,506.4484 C634.5329,502.6504 642.3639,499.2794 644.1829,489.2544 C647.6689,476.7714 676.6649,451.9124 655.6669,443.5264 C650.3339,443.7084 646.9999,425.8914 655.7899,433.5554 C658.9069,448.1614 667.9969,445.1404 670.3169,431.7974 C683.7829,424.7854 676.1649,393.3244 705.9209,416.4354 C696.6859,416.1854 685.4089,409.6634 683.2329,422.3634 C677.8629,429.5464 693.8809,426.2184 697.5019,422.8494 C703.8989,424.6934 708.1839,422.0644 713.8449,419.2414 C729.4269,420.3474 704.2139,428.7924 698.5069,430.0434 C689.2549,428.6434 663.8799,467.2764 682.3059,458.9954 C716.2509,446.5744 750.5499,440.1374 769.3899,406.7594 C750.5569,404.0394 767.3629,398.4924 776.7439,401.8764 C781.9199,410.5154 770.3569,423.0384 767.5059,431.7284 C763.1709,445.1904 751.5929,454.3784 748.3769,467.3794 C697.1369,554.9694 658.6189,596.9004 780.1549,524.4924 C816.4029,471.3744 852.5749,418.1634 890.6599,366.3314 C900.8069,358.1364 929.2379,300.7044 934.7299,331.6734 C919.0829,356.5154 902.4469,380.0694 885.6689,404.3374 C889.5519,455.3424 906.3279,507.0884 894.8149,559.7764 C884.9959,586.2884 882.7529,667.5504 845.7969,659.6284 C878.0039,594.1324 898.6309,485.5074 867.7659,428.6264 C819.9789,490.9374 773.0289,580.6384 683.4099,577.1334 C643.9319,574.7154 783.3649,424.4804 716.8359,460.4724 C691.8619,472.0194 661.3119,468.8124 651.9539,498.8034 C635.6239,523.7524 601.3889,527.2504 576.6459,541.1044 C537.2929,547.8604 573.1979,504.6244 579.4269,488.9444 C583.3059,477.9174 558.3499,476.1234 573.1939,458.7004 C604.8469,429.2374 586.7169,425.1944 567.9639,394.7094 C563.1269,378.2374 598.4119,373.0354 609.2309,362.9914 C612.0139,361.5564 618.1449,361.4864 619.4189,363.2204 C623.0099,368.1044 626.1589,369.8034 631.8189,367.0924 C646.0369,368.7134 660.8899,373.7754 675.0949,376.9184 C702.4349,378.6044 722.5699,348.3764 750.0549,347.9064 C751.8389,337.3224 769.6109,341.3014 768.0929,332.1184 C749.5209,301.7624 689.9659,297.3594 721.1519,250.8744 C724.0349,245.3334 737.4289,239.2844 729.1099,233.1214 C705.2379,222.3904 612.6869,167.0364 599.3749,199.6384 C581.4599,230.0264 547.1309,212.4114 547.8209,262.0474 C545.4209,312.7484 452.0789,270.9314 461.5409,322.1484 C482.3139,357.2334 439.2099,386.8504 408.8059,369.0984 C377.7719,347.8834 371.3979,308.7134 346.2519,282.7614 C326.8209,263.5604 311.9969,294.9404 299.4719,306.9464 C295.3139,333.0754 356.2799,421.1404 326.9089,429.6164 C288.7209,475.7644 328.7679,507.7604 373.2909,517.0984 C387.8869,560.2204 403.8859,603.0124 419.1909,645.9264 C425.2619,664.7964 437.8239,681.9724 409.5519,670.6444 C408.2439,627.1114 374.9469,577.5364 364.5059,531.5554 C353.8159,515.5074 324.8219,523.4924 312.4489,503.9204 C303.2489,490.7614 295.5719,504.4084 284.0389,506.4704 C274.7149,508.3954 272.6839,496.0144 279.6429,491.8964 C285.1519,485.8454 302.1209,489.6024 298.3549,478.2964 C292.0119,453.9224 301.0389,434.0144 317.8089,417.1474 C318.5109,379.3104 288.9539,339.2394 280.1399,300.4954 C271.8229,287.7324 273.0579,250.0454 251.3759,259.6484 C179.3279,287.7524 105.6509,311.4404 33.7779,340.0394 C4.7709,342.9424 54.7269,418.3514 55.9269,438.0664 C98.3329,560.6264 67.3489,485.0504 143.9459,539.3744 C149.2619,550.6234 161.4449,536.3684 165.9499,545.9314 C143.9009,582.6404 166.4969,584.3884 125.3319,612.9444 C117.3919,629.0354 136.0659,654.7984 141.9619,671.4994 C145.2079,668.2124 148.8679,664.4674 143.7279,661.5314 C140.9529,658.8844 141.1379,654.1424 144.0529,653.8014 C156.3619,652.4034 137.2569,638.7584 151.5099,633.8804 C161.4199,625.9854 163.5199,628.3364 168.6229,638.8104 C165.9229,638.2414 161.2539,636.9494 159.5969,638.2554 C157.5249,641.5014 159.2079,643.9734 162.8599,645.0194 C159.3519,654.1614 147.0099,655.2884 155.1049,668.2844 C160.7499,679.6094 138.1909,675.5364 145.7829,686.6884 C147.0769,689.8534 148.0679,693.6334 150.4359,695.7514 C153.7719,698.7364 149.2919,706.0264 156.6529,706.1774 C155.6749,725.2804 165.5239,726.9314 173.1869,741.5234 C173.4039,741.8964 172.3549,743.5944 172.1459,743.5474 C158.3709,744.4154 179.7069,762.9224 176.9489,771.3764 C181.9159,777.8164 182.2849,767.6234 187.2089,769.0734 C189.4289,757.9944 195.4849,773.2124 190.7659,777.8744 C202.5519,773.7454 223.5589,728.8924 245.7799,748.5944 C250.1679,754.5164 248.7859,736.4204 258.9269,740.4514 C253.3749,735.8454 255.9989,728.9404 257.3999,722.9864 C249.9029,726.5634 249.8119,738.0174 242.3239,737.8224 C235.2649,736.1604 240.2589,729.8014 237.9489,722.4044 C235.2449,725.9514 233.8639,729.0864 231.4619,730.6044 C224.9199,738.8344 212.1879,738.1224 216.8819,725.1244 C223.4869,728.4954 230.2659,725.4134 233.2449,719.2324 C238.8249,706.6124 238.1709,735.3414 244.3019,723.7404 C241.4819,711.0414 255.5619,717.0894 262.8019,711.7504 C263.5309,717.4934 263.9459,723.2314 266.0079,728.6864 C265.4439,729.5204 264.2469,730.9264 264.4069,731.1034 C275.7479,739.9584 253.5909,740.6704 268.9039,745.4474" id="Fill-3" fill="#161515" blush:i="0.0.1"/><g id="Group-7" transform="translate(586.000000, 855.320000)" blush:i="0.0.2"><mask id="masterspot-illustrationstravel-international-mask-2" fill="#fff" blush:i="0.0.2.0"><use xlink:href="#masterspot-illustrationstravel-international-path-1" blush:i="0.0.2.0.0"/></mask><g id="Clip-6" blush:i="0.0.2.1"/><path d="M421.4601,133.2799 C432.1461,133.7889 432.9521,116.3119 421.9121,115.9519 C410.8291,115.8099 410.6351,132.4949 421.4601,133.2799 M73.7591,165.3589 C74.2751,180.3739 93.1191,175.8049 92.5951,162.6799 C92.3661,150.1839 72.0271,153.5109 73.7591,165.3589 M240.6851,72.3009 C231.8101,61.6499 226.9071,84.5229 218.1651,73.9679 C209.6141,66.8039 203.3821,78.1349 211.9811,83.0839 C223.2161,87.1929 215.6431,95.0719 217.7851,103.6179 C226.3891,98.3169 228.7911,91.3469 238.6981,99.5829 C256.1601,101.1039 225.2931,84.3559 239.8351,75.4989 C240.2511,75.0789 240.2041,74.1959 240.6851,72.3009 M207.6361,18.6529 C236.0871,38.1129 268.7461,44.8789 300.9271,54.6389 C343.6951,62.7949 383.9221,79.1159 428.0571,84.5009 C435.7861,85.9509 443.9011,87.5459 449.5341,79.4329 C451.3161,87.0279 451.2551,87.4289 460.0801,88.7569 C509.8711,93.2849 559.2171,96.3749 558.4251,159.7009 C558.1721,204.8259 570.8721,254.2459 565.0811,296.4479 C517.9531,276.8599 461.4091,278.3829 516.9521,218.2859 C533.1641,168.9659 475.0601,207.3949 478.8441,236.3029 C482.2031,264.8469 423.8001,282.1529 418.8951,248.6229 C428.7361,231.5519 448.8691,219.9659 461.3701,204.3089 C479.3211,189.4369 487.8851,141.5989 451.9931,163.6969 C419.6371,181.9429 416.6741,218.8429 399.7461,245.2949 C380.4111,251.9019 355.9301,267.4349 338.9471,247.9649 C325.9561,230.8659 374.0831,209.5559 378.9881,189.0739 C401.0721,156.0759 374.7151,126.9349 349.1711,165.1829 C330.9061,185.7509 326.5181,212.0499 319.6351,237.1089 C297.4151,253.0839 251.9561,282.1069 236.0291,244.6169 C228.8401,226.3239 274.3741,208.2169 281.7331,187.7319 C297.0831,172.2659 314.3211,105.1079 274.2641,122.2369 C235.8091,147.8909 230.8731,195.7479 216.9951,233.3409 C191.9461,246.0389 151.2521,258.6499 132.4501,230.0619 C123.7001,216.2999 146.3311,207.4759 152.1051,196.4929 C172.5291,171.7439 187.4751,140.5079 185.7941,107.9569 C178.8471,76.5769 145.8571,104.7699 139.2451,122.0049 C117.4681,152.1699 123.9771,192.8319 112.1161,223.5199 C53.1271,254.6679 68.6441,267.6809 58.7441,219.0609 C33.9391,199.5279 41.1281,221.3929 20.8061,220.7219 C11.2441,212.3019 12.1931,229.5869 3.2041,227.8969 C-6.6789,223.1309 11.6711,188.1549 21.2611,202.9209 C25.4061,207.4899 27.4461,206.3049 31.0911,202.7509 C44.6921,182.3839 54.0641,214.1029 63.3541,200.1049 C75.2521,131.5329 79.8161,57.4859 131.9651,6.9159 C156.1821,-10.9221 182.1091,16.6929 207.6361,18.6529" id="Fill-5" fill="#9BE8FC" mask="url(#masterspot-illustrationstravel-international-mask-2)" blush:i="0.0.2.2"/></g><path d="M812.4946,1149.2825 C811.7196,1133.7445 789.3906,1128.2985 791.3836,1149.4915 C790.9276,1164.0045 813.3826,1163.4195 812.4946,1149.2825 M1004.4836,1149.2205 C997.7756,1128.9845 990.1206,1161.9285 980.7666,1155.5325 C966.9266,1144.9705 955.8296,1155.7415 973.7266,1164.4095 C988.8536,1170.4415 968.5116,1178.9005 975.0226,1186.3335 C996.7726,1178.6465 976.0796,1166.9695 1010.9256,1184.2765 C1021.7556,1184.0355 1004.1226,1171.9345 1000.4036,1169.4265 C991.1056,1163.9995 1003.0366,1156.0345 1004.4836,1149.2205 M609.4596,1176.4525 C621.8946,1167.3475 677.3816,1181.8505 673.7346,1166.0655 C654.4136,1158.4505 655.7626,1138.6135 648.6276,1123.8335 C648.0676,1109.3015 674.9006,1107.7605 684.4876,1098.6765 C692.2226,1096.8905 702.2876,1079.3825 708.8676,1088.5925 C740.4976,1141.8075 798.0326,1088.8005 811.7146,1101.9445 C822.3166,1143.1745 875.1796,1126.5285 901.9686,1106.0725 C921.4916,1095.8515 924.2016,1145.8235 985.5986,1112.0475 C1006.8476,1105.3445 1002.4896,1158.2095 1060.3176,1120.5395 C1063.7916,1118.6045 1065.9686,1117.0445 1068.1716,1122.0375 C1081.8296,1152.8185 1118.4126,1152.2555 1146.7026,1158.3775 C1142.4806,1174.9275 1115.9756,1189.4115 1103.2616,1178.4115 C1092.5096,1163.0905 1092.3836,1188.6355 1082.4896,1183.8665 C981.3596,1195.2315 878.0266,1192.7655 776.1366,1189.9675 C739.1936,1195.3825 704.3916,1178.5705 669.4656,1176.0215 C656.9046,1177.7425 643.4406,1175.1515 630.6616,1175.5685 C623.7866,1176.7155 615.9806,1182.5175 609.4596,1176.4525" id="Fill-8" fill="#9BE8FC" blush:i="0.0.3"/><path d="M845.7891,659.6213 C881.2851,662.3923 917.5301,652.2673 954.0111,658.7253 C1008.2651,670.8703 1011.1131,828.5473 1033.8191,880.5053 C1016.4011,872.5953 956.6141,882.1373 953.1961,868.0613 C967.5011,838.8513 958.2811,781.7913 1001.5451,784.0843 C1006.2881,781.8813 1006.2881,777.0613 1000.5571,776.1883 C963.4851,784.6383 990.0421,756.1313 993.0901,735.8503 C996.1081,679.2103 971.5371,753.3103 967.1991,771.0453 C951.7121,792.3243 910.7321,781.3053 886.2051,790.0143 C871.8451,790.2693 954.4961,680.1933 969.0491,678.1303 C971.9131,677.1383 978.4081,676.8413 970.0681,672.7573 C961.2761,663.8423 957.7651,659.4703 948.5591,671.9603 C941.4581,662.8483 931.2521,672.7653 939.7691,679.9953 C916.2001,688.7483 890.7951,700.3423 866.2841,702.6953 C866.0061,693.3143 859.4011,697.7973 855.0921,697.2503 C877.1021,714.0093 764.5121,732.7153 738.0991,746.1153 C732.0641,747.8703 730.6251,746.1753 732.2161,739.9663 C749.3191,637.8923 764.8221,676.9423 845.7891,659.6213" id="Fill-10" fill="#0C86DD" blush:i="0.0.4"/><path d="M249.9314,132.8021 C243.9114,141.0851 246.5034,167.3441 261.4844,165.0721 C303.5094,163.7261 347.4914,158.5351 388.8984,164.5271 C406.1544,191.4261 275.1964,174.4691 256.9014,179.7901 C206.9564,165.8431 231.7794,1.9871 349.4074,64.1241 C362.8454,20.9841 421.7394,-25.1309 460.2524,16.0301 C472.6314,25.6781 471.1164,58.6271 487.7414,57.4181 C578.7804,36.7801 579.3844,176.9341 552.7604,127.4111 C543.2794,34.4271 477.1534,87.6421 463.9744,67.6441 C465.6234,36.7701 435.2454,-1.2809 404.2164,20.3421 C399.0064,31.3781 406.5264,35.9101 416.7274,32.8081 C418.0214,35.0101 422.6594,37.0811 417.4664,40.4341 C408.1684,71.1721 411.0664,18.2161 397.6904,31.6051 C391.3124,36.8111 389.8214,22.1261 383.7804,35.4441 C383.3184,36.5631 386.6544,41.0571 380.9844,39.2111 C369.0164,48.3191 363.7454,67.9661 356.1144,81.1871 C346.6924,102.9921 330.7564,67.2001 315.9414,66.9251 C279.1624,52.7211 237.9744,97.6821 249.9314,132.8021" id="Fill-12" fill="#161515" blush:i="0.0.5"/><path d="M1035.5341,934.7532 C1009.1581,950.7352 971.3801,926.4932 941.4471,925.6202 C932.7121,923.1152 939.0171,919.5442 941.5121,914.4582 C947.4541,904.0192 942.4611,884.2002 957.4421,882.1432 C983.6171,882.7892 1008.9841,884.8722 1035.2501,882.8812 C1041.4801,896.4732 1041.5761,919.1242 1035.5341,934.7532" id="Fill-14" fill="#0C86DD" blush:i="0.0.6"/><path d="M1023.7269,483.2444 C1025.1909,459.0944 990.1739,461.4604 987.6159,480.5174 C986.8979,503.0844 1022.8629,508.7024 1023.7269,483.2444 M974.9869,484.6764 C974.0289,438.6384 1039.5109,442.0504 1038.5969,483.6914 C1038.5089,527.4734 971.4969,522.3954 974.9869,484.6764" id="Fill-16" fill="#161515" blush:i="0.0.7"/><g id="Group-20" transform="translate(0.000000, 680.320000)" blush:i="0.0.8"><mask id="masterspot-illustrationstravel-international-mask-4" fill="#fff" blush:i="0.0.8.0"><use xlink:href="#masterspot-illustrationstravel-international-path-3" blush:i="0.0.8.0.0"/></mask><g id="Clip-19" blush:i="0.0.8.1"/><path d="M48.6296,6.0318 C41.9296,23.3228 42.9786,27.3468 61.1906,30.0328 C81.0726,43.5648 62.8376,52.3748 47.1656,41.5088 C28.7096,31.1588 37.1916,67.2858 21.5596,66.8738 C-1.7584,62.3638 36.5956,33.1648 14.1796,29.2298 C8.3276,26.6808 1.8116,24.6548 -0.0004,17.7568 C9.9576,10.8378 25.8596,27.2678 31.2006,13.9978 C32.7246,5.6948 44.6886,-7.7372 48.6296,6.0318" id="Fill-18" fill="#161515" mask="url(#masterspot-illustrationstravel-international-mask-4)" blush:i="0.0.8.2"/></g><path d="M789.0642,92.8411 C828.6992,105.2101 807.4762,77.7561 829.6142,73.0611 C837.9592,77.4241 830.2692,88.0801 828.6032,94.5601 C823.7832,108.3331 853.6762,99.3871 856.4932,113.1381 C857.9662,127.4201 835.8392,116.7161 828.3352,115.2831 C814.3332,112.0931 825.6922,142.1921 810.6252,140.2981 C805.3262,139.5851 803.1132,135.5821 804.0762,130.3291 C804.3272,121.2731 815.0252,109.4831 801.0392,106.9221 C793.2332,105.2421 775.9062,99.2961 789.0642,92.8411" id="Fill-21" fill="#161515" blush:i="0.0.9"/><path d="M260.1199,1176.0042 C263.2529,1169.8342 272.0419,1170.7732 277.7679,1167.9782 C290.1259,1162.0282 263.5699,1144.5532 286.6339,1139.6152 C293.7049,1137.0942 293.7049,1137.0942 290.3289,1130.1412 C273.7489,1104.5502 341.2719,1111.6192 308.8949,1124.0882 C304.3809,1125.1142 304.5309,1127.1542 306.6829,1130.7102 C314.3469,1142.2502 305.9919,1148.8822 295.2219,1151.3442 C295.1819,1184.7722 323.8809,1181.3572 260.1199,1176.0042" id="Fill-23" fill="#9BE8FC" blush:i="0.0.10"/><path d="M30.2131,1119.8411 C31.6121,1131.9581 31.8681,1174.7391 51.2771,1152.7651 C54.8471,1142.1291 57.4701,1130.9901 71.0451,1133.4621 C86.0231,1137.7291 97.6051,1115.9161 112.0461,1125.0671 C79.1341,1161.8341 68.1301,1134.3211 63.3561,1153.4661 C47.9361,1180.9891 82.4231,1167.6221 96.2081,1176.0111 C54.5751,1179.3201 19.5011,1168.2621 30.2131,1119.8411" id="Fill-25" fill="#9BE8FC" blush:i="0.0.11"/><path d="M535.5231,1167.3977 C561.1661,1162.1467 535.4191,1143.8717 556.3461,1137.1767 C570.5901,1130.2097 563.5991,1105.8007 595.6761,1124.8247 C591.6881,1128.2237 587.3911,1130.5077 582.0141,1130.1767 C571.4481,1130.3557 577.0691,1146.6527 565.6481,1147.3617 C556.0651,1148.9727 565.0721,1159.1447 563.1041,1163.9817 C559.0641,1171.6387 563.2171,1175.0747 568.9531,1178.2567 C559.0681,1174.9327 522.6111,1183.3057 535.5231,1167.3977" id="Fill-27" fill="#9BE8FC" blush:i="0.0.12"/><path d="M129.3192,874.5706 C128.3102,877.7446 126.4042,880.4526 131.5392,882.7976 C134.6552,884.2186 137.4002,888.4536 138.4252,891.9726 C143.9582,903.7806 162.1432,879.4336 162.4682,904.5516 C163.1502,912.8506 163.1532,912.8566 170.2572,908.6336 C190.5112,899.9596 153.5742,941.2116 150.6122,916.3666 C150.7162,899.2586 130.5462,921.4756 127.5122,903.1746 C122.8152,884.8016 92.2992,909.8416 129.3192,874.5706" id="Fill-29" fill="#9BE8FC" blush:i="0.0.13"/><path d="M272.7555,108.6165 C266.2945,109.3895 258.5075,111.0155 260.3515,118.7655 C263.7105,127.6765 281.5445,110.7355 272.7555,108.6165 M277.5045,100.6095 C275.4785,106.6055 283.3445,109.5555 283.6445,113.1775 C270.6265,106.1165 282.1385,139.5335 264.4415,130.8175 C275.5105,122.4015 260.7485,111.6635 258.4475,126.7115 C243.5155,105.3835 258.0625,99.3675 277.5045,100.6095" id="Fill-31" fill="#161515" blush:i="0.0.14"/><path d="M426.3684,1176.0686 C437.4434,1165.9736 426.9774,1177.4626 445.2404,1173.4526 C469.4374,1173.3036 493.6424,1172.9636 517.8394,1173.3096 C489.2234,1181.1586 456.1744,1177.3696 426.3684,1176.0686" id="Fill-33" fill="#0C86DD" blush:i="0.0.15"/><path d="M430.2189,45.8675 C422.6959,62.3435 446.1069,40.4805 444.1299,57.3435 C443.3759,59.4235 440.6999,62.3315 438.9809,62.2525 C412.3279,66.9545 423.5039,22.3875 430.2189,45.8675" id="Fill-35" fill="#9BE8FC" blush:i="0.0.16"/><path d="M381.5743,68.469 C382.4013,62.932 376.5763,54.91 382.1673,55.202 C398.9183,26.987 409.1953,77.31 381.5743,68.469" id="Fill-37" fill="#161515" blush:i="0.0.17"/><path d="M353.1907,1174.8235 C375.1577,1174.7205 398.2097,1169.1925 419.5097,1176.0735 C398.7257,1175.7405 369.8817,1180.4185 353.1907,1174.8235" id="Fill-39" fill="#0C86DD" blush:i="0.0.18"/><path d="M312.7662,115.8704 C309.5682,119.3514 309.5552,137.9464 303.4282,131.6094 C299.5732,114.7774 290.4422,91.8074 312.7662,115.8704" id="Fill-41" fill="#9BE8FC" blush:i="0.0.19"/><path d="M252.5622,100.1526 C251.4302,109.8916 252.8482,118.7036 258.4482,126.7106 C242.9022,143.4006 245.8722,107.0666 252.5622,100.1526" id="Fill-43" fill="#9BE8FC" blush:i="0.0.20"/><path d="M381.5743,68.469 C396.8723,67.102 392.5303,75.824 381.7193,79.852 C384.0583,71.737 367.1613,69.288 381.5743,68.469" id="Fill-45" fill="#0542A8" blush:i="0.0.21"/><path d="M386.4563,77.429 C388.6583,74.895 393.9053,74.436 392.0773,69.161 C408.3013,48.311 402.2203,104.375 386.4563,77.429" id="Fill-47" fill="#9BE8FC" blush:i="0.0.22"/><path d="M40.5386,1062.136 C38.2366,1075.931 42.8666,1092.272 32.9526,1103.473 C35.7586,1089.912 31.6596,1073.41 40.5386,1062.136" id="Fill-49" fill="#9BE8FC" blush:i="0.0.23"/><path d="M283.6432,113.1771 C281.6962,115.4801 282.7802,117.8301 285.3192,119.5831 C296.2022,126.8651 272.0612,140.6281 298.9832,136.8431 C279.1882,137.1851 286.1502,128.3571 283.6432,113.1771" id="Fill-51" fill="#0542A8" blush:i="0.0.24"/><path d="M312.7662,115.8704 C304.8692,108.4744 305.3152,103.6994 296.0692,106.2934 C309.5622,107.8534 315.9742,94.2284 312.7662,115.8704" id="Fill-53" fill="#161515" blush:i="0.0.25"/><path d="M334.2583,93.1771 C327.9543,107.5351 308.3633,72.8661 323.2103,81.5501 C324.1443,88.8441 332.2253,88.7041 334.2583,93.1771" id="Fill-55" fill="#9BE8FC" blush:i="0.0.26"/><path d="M49.1473,1026.9924 C59.3703,1029.6704 39.9183,1038.3954 47.2573,1047.4464 C40.9373,1060.5134 42.5123,1031.8514 49.1473,1026.9924" id="Fill-57" fill="#9BE8FC" blush:i="0.0.27"/><path d="M311.0599,102.8558 C302.0609,108.7488 284.5659,107.5358 299.7169,97.4188 C305.4009,94.2968 305.1439,103.2578 311.0599,102.8558" id="Fill-59" fill="#9BE8FC" blush:i="0.0.28"/><path d="M112.8257,1176.2708 C119.3807,1171.3478 126.0027,1175.1678 132.6027,1176.1208 C126.0537,1177.4018 117.5567,1183.9138 112.8257,1176.2708" id="Fill-61" fill="#9BE8FC" blush:i="0.0.29"/><path d="M106.7447,897.7942 C105.2207,904.9802 98.5487,906.9242 93.6457,910.6622 C91.1027,902.5632 101.6167,900.7162 106.7447,897.7942" id="Fill-63" fill="#9BE8FC" blush:i="0.0.30"/><path d="M210.7999,1174.6555 C219.9229,1175.3575 229.0459,1176.0595 238.1689,1176.7615 C228.9779,1180.3455 219.7829,1175.8145 210.7999,1174.6555" id="Fill-65" fill="#9BE8FC" blush:i="0.0.31"/><path d="M179.6166,1175.5422 C188.0086,1175.8532 196.4016,1176.1632 204.7936,1176.4752 C197.4376,1181.3022 187.8766,1175.6582 179.6166,1175.5422" id="Fill-67" fill="#9BE8FC" blush:i="0.0.32"/><path d="M311.287,1175.1702 C316.234,1174.4792 321.182,1173.7862 326.124,1173.0932 C324.581,1178.6792 315.601,1177.8362 311.287,1175.1702" id="Fill-69" fill="#9BE8FC" blush:i="0.0.33"/><path d="M378.4026,55.8948 C380.9016,58.0488 381.7536,59.6858 380.5846,62.2788 C376.1856,58.8718 371.4496,60.2858 378.4026,55.8948" id="Fill-71" fill="#0542A8" blush:i="0.0.34"/><path d="M244.4723,1176.8128 C248.6603,1176.5328 252.8483,1176.2518 257.0363,1175.9718 C253.1423,1180.6418 248.8903,1179.9588 244.4723,1176.8128" id="Fill-73" fill="#9BE8FC" blush:i="0.0.35"/><path d="M164.8567,1175.8547 C167.5777,1174.0687 170.2457,1171.6407 173.4057,1175.1447 C170.8017,1178.3417 168.2017,1181.5887 164.8567,1175.8547" id="Fill-75" fill="#9BE8FC" blush:i="0.0.36"/><path d="M147.54,1176.0588 C152.102,1175.9758 156.663,1175.8928 161.225,1175.8098 C156.777,1182.1538 152.121,1177.0338 147.54,1176.0588" id="Fill-77" fill="#9BE8FC" blush:i="0.0.37"/><path d="M325.8562,1174.8958 C326.8582,1170.9828 339.6042,1169.8398 340.4962,1175.6438 C335.6562,1174.9878 330.7302,1175.1848 325.8562,1174.8958" id="Fill-79" fill="#0C86DD" blush:i="0.0.38"/><path d="M353.1907,1174.8235 C352.9747,1179.9665 345.4437,1178.0645 342.5707,1176.0605 C345.6007,1173.5735 349.5737,1174.7355 353.1907,1174.8235" id="Fill-81" fill="#9BE8FC" blush:i="0.0.39"/><path d="M32.1178,1107.9944 C31.4028,1110.8204 30.6878,1113.6474 29.9758,1116.4704 C30.6908,1113.6404 31.4048,1110.8174 32.1178,1107.9944" id="Fill-83" fill="#9BE8FC" blush:i="0.0.40"/><path d="M599.3743,1176.7795 C601.5843,1176.6175 603.7953,1176.4545 606.0053,1176.2925 C604.0253,1179.5925 601.8353,1180.0385 599.3743,1176.7795" id="Fill-85" fill="#9BE8FC" blush:i="0.0.41"/><path d="M102.2323,1175.8753 C104.4183,1176.0683 106.6043,1176.2613 108.7903,1176.4533 C106.2863,1179.8683 104.1173,1179.4833 102.2323,1175.8753" id="Fill-87" fill="#9BE8FC" blush:i="0.0.42"/><path d="M518.8817,1174.6008 C520.6347,1175.1608 524.2977,1173.9058 524.0257,1176.4808 C522.0127,1176.6688 519.1417,1179.2058 518.8817,1174.6008" id="Fill-89" fill="#0C86DD" blush:i="0.0.43"/><path d="M571.4792,1178.3059 C574.4992,1177.7879 577.5182,1177.2699 580.5382,1176.7519 C577.5182,1177.2699 574.4992,1177.7879 571.4792,1178.3059" id="Fill-91" fill="#9BE8FC" blush:i="0.0.44"/><path d="M585.8728,1175.9153 C588.6118,1175.9133 591.3508,1175.9113 594.0928,1175.9073 C591.3538,1175.9083 588.6128,1175.9113 585.8728,1175.9153" id="Fill-93" fill="#9BE8FC" blush:i="0.0.45"/><path d="M524.0258,1176.4807 C523.1138,1173.6397 527.3648,1176.3867 529.0058,1176.3867 C527.3458,1176.4187 525.6858,1176.4497 524.0258,1176.4807" id="Fill-95" fill="#9BE8FC" blush:i="0.0.46"/><path d="M382.824,55.1214 C382.397,55.8184 382.032,55.1234 382.36,54.6274 C382.36,54.6274 382.824,55.1214 382.824,55.1214" id="Fill-97" fill="#0542A8" blush:i="0.0.47"/><path d="M1148.9813,1156.0794 C1149.4713,1155.3774 1149.9613,1154.6754 1150.4503,1153.9754 C1149.9603,1154.6784 1149.4703,1155.3784 1148.9813,1156.0794" id="Fill-99" fill="#9BE8FC" blush:i="0.0.48"/><path d="M134.5058,870.1272 L134.4998,870.7762 C133.8778,870.6642 133.7348,869.8062 134.5058,870.1272" id="Fill-101" fill="#9BE8FC" blush:i="0.0.49"/><path d="M303.324,1175.052 C303.833,1173.514 304.033,1173.512 304.71,1174.977 C304.346,1175.207 303.71,1175.241 303.324,1175.052" id="Fill-103" fill="#9BE8FC" blush:i="0.0.50"/><path d="M42.2093,1058.1848 C42.7313,1058.8158 42.5373,1058.9378 41.8243,1059.1088 C41.6373,1058.6668 41.7603,1058.3568 42.2093,1058.1848" id="Fill-105" fill="#9BE8FC" blush:i="0.0.51"/><path d="M338.4707,1175.3528 C339.1467,1175.4508 339.8227,1175.5468 340.4967,1175.6438 C339.8197,1175.5468 339.1457,1175.4498 338.4707,1175.3528" id="Fill-107" fill="#9BE8FC" blush:i="0.0.52"/><path d="M138.4681,865.843 C138.6671,865.984 138.8661,866.124 139.0661,866.264 C138.7641,866.118 137.9021,866.157 138.4681,865.843" id="Fill-109" fill="#9BE8FC" blush:i="0.0.53"/><path d="M831.0634,732.5178 C825.3584,738.6628 823.3464,740.1928 830.5824,744.5578 C835.5944,740.2568 834.9774,738.8058 831.0634,732.5178 M934.3434,692.9488 C863.3664,794.5318 882.2504,794.9818 755.9134,808.4368 C697.0434,822.3668 713.3284,812.0278 725.5104,764.8248 C788.9894,733.1988 865.1524,713.1018 934.3434,692.9488" id="Fill-111" fill="#0C86DD" blush:i="0.0.54"/><path d="M914.9194,839.3206 C914.6354,852.3446 935.0944,855.3126 934.8124,840.0996 C935.6784,827.6056 913.8224,827.7796 914.9194,839.3206 M881.8744,871.9926 C793.2894,878.8686 836.8684,858.1166 866.8244,807.5996 C891.1144,792.8466 925.1354,797.5996 952.8464,790.9226 C970.1044,791.4506 939.4014,852.5986 939.7784,867.6106 C926.5604,878.8796 899.0424,869.6486 881.8744,871.9926" id="Fill-113" fill="#0C86DD" blush:i="0.0.55"/><path d="M793.6359,873.9729 C759.9929,868.1799 727.5189,835.8289 702.6209,878.3749 C685.8109,876.0859 706.5989,847.6389 705.7749,836.1269 C717.5829,818.5099 750.3649,825.1169 769.7579,817.8759 C785.7819,819.1869 851.2709,795.7679 849.2989,812.5809 C831.2219,832.6099 823.5559,870.7839 793.6359,873.9729" id="Fill-115" fill="#0C86DD" blush:i="0.0.56"/><path d="M571.0591,688.9114 C590.1341,676.2954 620.8561,683.7104 643.7711,676.6824 C680.7371,667.3654 672.1101,683.3054 652.1581,704.6984 C611.6071,734.2674 561.9421,751.8744 517.2201,774.8114 C522.8771,741.2544 559.3821,719.2574 571.0591,688.9114" id="Fill-117" fill="#0C86DD" blush:i="0.0.57"/><path d="M607.7023,790.6282 C629.9493,736.9032 671.9723,704.3282 725.8023,685.6712 C729.5663,683.6612 736.6223,679.9702 734.3073,687.7072 C725.4083,709.0232 727.6463,740.2802 710.0883,755.5652 C675.8093,766.4642 642.2443,781.5192 607.7023,790.6282" id="Fill-119" fill="#0C86DD" blush:i="0.0.58"/><path d="M467.8835,851.2298 C488.4335,781.1018 569.1665,767.1968 625.4465,733.8588 C634.6865,741.0958 602.2745,768.5078 598.2085,782.7208 C566.8985,819.8898 510.3925,830.1078 467.8835,851.2298" id="Fill-121" fill="#0C86DD" blush:i="0.0.59"/><path d="M547.5822,895.071685 C532.2912,895.1206 553.6212,874.0016 556.0262,867.4236 C595.3842,848.9376 643.0282,844.3826 685.7762,833.9096 C703.4732,830.7276 683.2102,862.3826 683.9742,872.1556 C647.4162,892.3336 590.7492,885.1296 547.5822,895.071685" id="Fill-123" fill="#0C86DD" blush:i="0.0.60"/><path d="M576.304,846.9573 C570.321,847.2563 569.902,844.7863 572.106,841.2703 C594.559,789.0193 659.684,789.2543 706.05,767.3733 C720.354,765.8303 700.299,797.1043 701.786,806.8363 C681.604,837.3123 611.269,831.6053 576.304,846.9573" id="Fill-125" fill="#0C86DD" blush:i="0.0.61"/><path d="M676.1742,926.3343 C676.7352,931.1773 669.6232,935.7333 675.6362,940.7793 C673.9382,942.1733 670.0952,949.0343 669.1352,947.1353 C671.4212,916.0013 547.0482,947.9643 519.8752,923.3393 C543.8962,890.9533 630.6512,900.2243 671.5252,890.9153 C690.3532,890.7613 661.1512,920.8173 676.1742,926.3343" id="Fill-127" fill="#0C86DD" blush:i="0.0.62"/><path d="M666.4988,673.6467 C648.3248,677.5887 640.8838,678.0537 641.0248,657.4257 C640.4308,654.2577 649.5098,656.5267 644.1218,652.2177 C640.3428,649.1957 637.7748,648.9417 644.0048,645.7697 C652.8788,633.4797 646.2418,608.8587 625.5978,615.0547 C577.4098,642.4207 559.9088,610.6887 518.3308,620.9517 C490.0998,633.0287 490.9888,670.3107 478.3798,694.6767 C463.2128,688.5147 484.3078,659.9447 484.6518,645.9437 C505.0128,574.8167 559.1458,624.5607 602.3138,606.4487 C626.1738,590.9847 663.7898,601.1647 662.2918,632.1487 C662.0018,646.5167 658.6798,660.4777 666.4988,673.6467" id="Fill-129" fill="#161515" blush:i="0.0.63"/><path d="M666.4991,958.2376 C662.1061,983.6356 656.2731,1005.6086 626.1491,992.9006 C615.8321,992.1316 548.5261,947.0256 567.0841,943.0316 C596.9021,943.3456 626.7141,944.5896 656.5201,944.9396 C665.8401,943.4786 663.0001,952.3906 666.4991,958.2376" id="Fill-131" fill="#0C86DD" blush:i="0.0.64"/><path d="M711.9039,1055.6985 C717.0249,1021.0215 723.9409,984.4585 750.3939,960.3135 C794.4199,943.0895 722.4169,1088.2575 711.9039,1055.6985" id="Fill-133" fill="#9BE8FC" blush:i="0.0.65"/><path d="M927.2101,918.2063 C887.5451,910.7663 850.5661,901.5943 814.1101,885.4173 C850.4431,878.1743 889.3501,884.4343 926.5691,882.4663 C944.7211,880.4823 926.5991,908.1463 927.2101,918.2063" id="Fill-135" fill="#0C86DD" blush:i="0.0.66"/><path d="M879.2836,995.8479 C870.7576,1028.8979 851.0366,1060.6779 820.2566,1076.1499 C813.4756,1055.8189 862.9456,949.6079 879.2836,995.8479" id="Fill-137" fill="#9BE8FC" blush:i="0.0.67"/><path d="M469.9791,882.469 C460.3881,881.142 464.3611,872.464 462.4161,867.335 C460.6221,862.603 466.5791,862.07 469.8871,860.627 C502.3111,846.484 534.7411,832.353 567.1991,818.287 C582.5211,814.853 558.0991,842.731 554.8571,849.813 C532.4361,867.823 486.6461,862.296 469.9791,882.469" id="Fill-139" fill="#0C86DD" blush:i="0.0.68"/><path d="M168.9416,1053.6262 C141.4066,1049.6462 164.2336,1067.1812 154.9206,1077.9822 C144.8996,1076.4172 143.5516,1061.2942 140.0636,1053.3822 C132.9396,1028.1702 170.3176,1052.2122 169.7286,1035.6812 C160.6956,1001.2612 189.3206,1027.6882 189.3366,1012.6882 C179.7066,985.0852 213.7306,993.5212 220.6326,1009.4382 C218.5596,1010.3222 216.4536,1012.0132 214.4246,1011.9252 C190.6986,1002.3632 209.5616,1032.0052 187.7996,1030.4122 C169.6956,1025.9442 191.1576,1058.4302 168.9416,1053.6262" id="Fill-141" fill="#9BE8FC" blush:i="0.0.69"/><path d="M302.1943,796.5188 C305.0483,782.7658 294.9003,789.1148 287.4743,792.2358 C270.4053,788.4668 296.9793,773.2568 305.3093,775.8128 C314.4083,776.2868 313.6263,786.6598 313.7183,793.3178 C317.3263,804.7748 337.9243,786.6378 337.1663,806.4918 C340.9853,819.0278 360.9583,798.9478 359.0713,822.7198 C363.0943,837.7068 359.9063,852.7548 346.6043,834.5268 C346.1873,830.0508 348.6973,822.4628 340.1653,825.4838 C327.9073,829.2588 325.3743,827.3988 324.2413,814.8598 C320.2843,802.7208 299.1213,820.3438 302.1943,796.5188" id="Fill-143" fill="#9BE8FC" blush:i="0.0.70"/><path d="M378.6642,1029.7571 C380.7902,1017.7821 373.2372,1019.1281 364.9842,1022.8321 C344.8052,1014.3791 393.6412,998.2701 388.4402,1022.6401 C386.1142,1039.9271 409.9202,1020.2071 408.5202,1039.4591 C410.7452,1053.2311 435.4972,1033.7651 432.0762,1059.8001 C431.5512,1067.1381 430.5282,1093.8071 419.7402,1079.9951 C415.8432,1071.8031 425.0442,1051.0571 409.4862,1059.2011 C388.4892,1068.4981 402.0042,1046.5781 390.6052,1043.2891 C378.8632,1043.2181 378.2542,1042.2421 378.6642,1029.7571" id="Fill-145" fill="#9BE8FC" blush:i="0.0.71"/><path d="M471.7952,690.7757 C464.6662,696.6587 471.6742,712.1697 458.7752,717.0957 C455.4852,723.5427 465.7512,730.2037 458.4762,736.8797 C457.0612,741.4467 460.7142,750.1057 458.1962,754.6617 C449.5142,764.2377 444.7192,752.2237 443.1832,743.8087 C436.2872,736.7257 442.9202,731.9847 442.5332,724.2357 C434.3712,716.4607 445.5872,708.6737 444.4732,703.9757 C432.4362,680.3307 457.7412,688.0607 471.7952,690.7757" id="Fill-147" fill="#9BE8FC" blush:i="0.0.72"/><path d="M469.8821,882.5677 C494.8171,884.3037 517.7451,870.3327 541.7921,869.1047 C536.4691,903.4867 485.1541,917.8917 469.8821,882.5677" id="Fill-149" fill="#0C86DD" blush:i="0.0.73"/><path d="M967.1235,1018.9778 C962.3365,1036.3378 933.1305,1083.5488 920.0825,1075.4028 C921.9575,1059.6668 951.2325,989.8168 967.1235,1018.9778" id="Fill-151" fill="#9BE8FC" blush:i="0.0.74"/><path d="M1005.1249,1088.0003 C1010.0309,1060.7193 1027.4549,1029.7613 1053.9279,1022.6143 C1055.8059,1049.8123 1025.0889,1070.0173 1005.1249,1088.0003" id="Fill-153" fill="#9BE8FC" blush:i="0.0.75"/><path d="M520.9104,919.9407 C495.6744,929.1417 513.7574,944.3467 487.4424,945.1077 C470.4234,942.7607 483.4674,960.1717 471.5474,963.4497 C454.8614,960.8757 464.3584,933.3187 478.2634,932.2447 C486.2814,931.1737 494.4734,932.7967 494.6504,921.7447 C496.7204,906.5667 512.4404,916.1257 520.9104,919.9407" id="Fill-155" fill="#9BE8FC" blush:i="0.0.76"/><path d="M286.6066,936.6975 C278.8816,940.9815 287.3776,953.2105 293.5176,952.6595 C303.1476,948.3455 296.8266,936.0395 286.6066,936.6975 M287.7186,926.4805 C312.7756,924.0405 318.5456,963.1845 293.7316,963.7585 C272.9296,964.1155 261.8216,927.3095 287.7186,926.4805" id="Fill-157" fill="#9BE8FC" blush:i="0.0.77"/><path d="M682.7181,674.5725 C700.9121,672.8615 719.1061,671.1515 737.2981,669.4415 C719.4781,675.6665 650.4251,721.5525 681.5931,682.5845 C683.6091,679.9655 685.7851,677.7415 682.7181,674.5725" id="Fill-159" fill="#0C86DD" blush:i="0.0.78"/><path d="M332.4695,690.2903 C341.9965,678.8113 351.7605,695.5263 358.7875,685.1703 C357.4975,673.6113 365.3315,674.0413 371.7735,666.0993 C372.4145,664.5923 380.4955,661.9203 384.0085,667.7103 C377.8395,670.0963 370.9205,669.9473 372.7035,679.2063 C374.9565,703.7943 344.9375,708.7703 332.4695,690.2903" id="Fill-161" fill="#9BE8FC" blush:i="0.0.79"/><path d="M539.3888,1024.8616 C521.0928,1025.5996 520.2138,996.0056 539.1988,997.3236 C559.8988,997.1416 558.1548,1025.0086 539.3888,1024.8616" id="Fill-163" fill="#9BE8FC" blush:i="0.0.80"/><path d="M419.3816,882.8216 C419.4286,900.9476 392.2666,901.9476 392.0356,883.2726 C390.9616,863.6176 420.3026,866.6706 419.3816,882.8216" id="Fill-165" fill="#9BE8FC" blush:i="0.0.81"/><path d="M101.4608,1022.7014 C107.4148,1014.7644 108.8388,1007.1064 98.4348,1006.9434 C91.0858,1011.0584 97.8638,1015.8844 101.4608,1022.7014 M115.1768,1012.1894 C115.0328,1033.5184 86.4348,1032.4314 86.0928,1012.1334 C84.7048,989.2164 116.0388,996.4414 115.1768,1012.1894" id="Fill-167" fill="#9BE8FC" blush:i="0.0.82"/><path d="M416.5221,1131.7805 C412.1781,1128.3845 410.6641,1125.3325 407.3171,1131.3535 C411.1301,1134.4755 412.2091,1137.3565 416.5221,1131.7805 M426.3271,1131.7325 C426.9181,1148.9905 398.9271,1149.5895 398.8781,1132.8055 C398.2841,1111.2815 426.4731,1114.5725 426.3271,1131.7325" id="Fill-169" fill="#9BE8FC" blush:i="0.0.83"/><path d="M203.8409,805.3577 C240.6799,783.0777 212.6189,860.5527 191.1259,817.6797 C196.6819,806.2407 197.8689,814.1727 206.0599,817.7377 C213.7129,816.1837 207.9689,807.8157 203.8409,805.3577" id="Fill-171" fill="#9BE8FC" blush:i="0.0.84"/><path d="M224.3274,1110.0432 C212.6624,1110.9452 205.6524,1098.5382 213.6054,1092.4112 C230.2444,1086.7872 243.6874,1101.5032 224.3274,1110.0432" id="Fill-173" fill="#9BE8FC" blush:i="0.0.85"/><path d="M1076.7994,1090.8196 C1078.6414,1079.3016 1083.0224,1064.1326 1096.1464,1061.2096 C1094.8474,1070.1036 1084.5984,1090.5546 1076.7994,1090.8196" id="Fill-175" fill="#9BE8FC" blush:i="0.0.86"/><path d="M277.9241,725.928 C303.7601,730.218 275.9351,731.718 271.5841,744.158 C269.3911,746.643 265.7041,744.147 263.2461,743.053 C264.0761,736.909 272.8541,739.466 264.4051,731.103 C266.9431,727.34 274.2121,732.12 277.9241,725.928" id="Fill-177" fill="#9BE8FC" blush:i="0.0.87"/><path d="M630.0447,1003.8909 C641.4597,1003.9589 658.9627,1008.0909 643.1597,1018.7689 C637.7347,1018.8529 635.8957,1007.8789 630.0447,1003.8909" id="Fill-179" fill="#0C86DD" blush:i="0.0.88"/><path d="M491.2388,703.2249 C498.4038,690.4459 518.4608,693.4599 500.7338,702.9979 C502.0708,710.1119 495.7298,704.0479 491.2388,703.2249" id="Fill-181" fill="#161515" blush:i="0.0.89"/><path d="M939.7668,679.9954 C931.2368,672.8024 941.4828,662.7914 948.5608,671.9564 C947.8858,677.1064 945.5828,680.4734 939.7668,679.9954" id="Fill-183" fill="#9BE8FC" blush:i="0.0.90"/><path d="M517.6287,918.3626 C511.1387,914.9536 496.6757,912.6256 511.3037,910.9316 C519.3227,909.4246 519.3247,909.4386 517.6287,918.3626" id="Fill-185" fill="#0C86DD" blush:i="0.0.91"/><path d="M697.4933,888.678 C694.3863,893.259 691.2793,897.841 688.1763,902.426 C689.0703,891.162 689.3303,890.78 697.4933,888.678" id="Fill-187" fill="#0C86DD" blush:i="0.0.92"/><path d="M535.5231,1167.3977 C533.0461,1175.2557 527.4141,1169.9697 521.5091,1168.7047 C526.1691,1168.2657 530.8821,1166.1877 535.5231,1167.3977" id="Fill-189" fill="#0C86DD" blush:i="0.0.93"/><path d="M565.7351,985.3811 C560.3681,981.3591 565.3741,979.9601 568.6181,977.0091 C573.8181,978.7721 568.0711,982.0491 565.7351,985.3811" id="Fill-191" fill="#0C86DD" blush:i="0.0.94"/><path d="M246.4844,765.051 C241.5114,760.252 250.4034,759.412 253.6924,756.736 C255.9064,761.935 249.5334,762.495 246.4844,765.051" id="Fill-193" fill="#9BE8FC" blush:i="0.0.95"/><path d="M294.833982,725.0647 C294.829,721.0187 295.846,717.8517 300.826,718.1057 C298.826,720.4277 296.83,722.7467 294.833982,725.0647" id="Fill-195" fill="#9BE8FC" blush:i="0.0.96"/><path d="M301.337,717.5891 C299.885,711.9661 302.818,712.2471 306.598,713.6831 C304.841,714.9871 303.089,716.2881 301.337,717.5891" id="Fill-197" fill="#9BE8FC" blush:i="0.0.97"/><path d="M684.2341,911.6966 C683.5131,913.3926 682.7921,915.0906 682.0761,916.7866 C682.7991,915.0906 683.5161,913.3926 684.2341,911.6966" id="Fill-199" fill="#0C86DD" blush:i="0.0.98"/><path d="M348.3812,1174.5051 C347.2832,1174.5281 346.1852,1174.5511 345.0922,1174.5731 C346.5212,1171.6511 347.0052,1171.4221 348.3812,1174.5051" id="Fill-201" fill="#0C86DD" blush:i="0.0.99"/><path d="M397.0072,667.2356 C397.7402,667.3156 398.4742,667.3966 399.1912,667.4736 C398.4522,667.3916 397.7302,667.3136 397.0072,667.2356" id="Fill-203" fill="#9BE8FC" blush:i="0.0.100"/><path d="M316.3856,702.843 C317.1826,702.357 317.9786,701.869 318.7606,701.388 C317.9596,701.875 317.1726,702.36 316.3856,702.843" id="Fill-205" fill="#9BE8FC" blush:i="0.0.101"/><path d="M322.167,699.2971 C322.389,698.4061 323.036,698.9691 322.84,699.6461 C322.84,699.6461 322.167,699.2971 322.167,699.2971" id="Fill-207" fill="#9BE8FC" blush:i="0.0.102"/><path d="M291.0762,728.0442 C291.6312,727.6872 292.1852,727.3282 292.7342,726.9762 C292.1772,727.3362 291.6272,727.6902 291.0762,728.0442" id="Fill-209" fill="#9BE8FC" blush:i="0.0.103"/><path d="M244.8707,766.0374 C245.0107,765.5834 245.3297,765.4484 245.7627,765.6084 C245.6307,766.3724 245.5517,766.5564 244.8707,766.0374" id="Fill-211" fill="#9BE8FC" blush:i="0.0.104"/><path d="M607.754,790.68 C607.447,790.945 607.139,791.209 606.832,791.474 C606.797,790.934 607.305,790.615 607.754,790.68" id="Fill-213" fill="#0C86DD" blush:i="0.0.105"/><path d="M467.8159,851.1624 C467.6759,851.4654 467.5359,851.7664 467.3969,852.0694 C467.5039,851.7604 467.9189,851.4334 467.8159,851.1624" id="Fill-215" fill="#0C86DD" blush:i="0.0.106"/><path d="M1084.2997,286.0823 C1080.5027,281.7743 1084.9937,281.1423 1087.0717,279.0693 C1080.9427,271.1623 1068.7137,267.1533 1058.3837,268.2423 C1059.2787,258.6003 1078.9327,251.5733 1086.4037,255.0073 C1095.2947,257.9603 1087.6687,266.8143 1095.2917,272.1413 C1106.1117,280.3483 1092.2777,286.2893 1084.2997,286.0823" id="Fill-217" fill="#9BE8FC" blush:i="0.0.107"/><path d="M388.1807,243.3577 C385.5587,247.9107 378.8787,242.9657 374.5257,245.2887 C374.2577,252.3747 387.3467,247.8587 376.9717,252.1077 C371.9857,248.2507 358.1877,263.0337 361.7517,252.3117 C356.0787,244.1637 392.1157,226.6527 401.0267,222.8487 C397.2307,228.3427 385.7077,235.6707 388.1807,243.3577" id="Fill-219" fill="#9BE8FC" blush:i="0.0.108"/><path d="M954.9904,268.9416 C950.0314,278.7656 963.3844,267.9996 965.1294,274.9866 C965.9284,276.8276 969.5424,270.9466 968.1974,276.2326 C967.2614,278.4956 964.6274,281.7196 961.7824,279.5086 C948.3274,272.1956 944.3414,296.2886 957.5594,296.0476 C952.3224,302.0876 938.6884,288.8986 942.2294,281.9206 C944.7984,274.2666 936.5544,278.9386 932.0134,278.2436 C951.0654,270.6536 938.4474,273.5716 945.3084,280.2746 C962.1124,269.4586 937.4454,274.5316 954.9904,268.9416" id="Fill-221" fill="#0542A8" blush:i="0.0.109"/><path d="M898.999,291.9993 C890.831,295.0623 895.914,299.6513 900.371,304.4553 C903.609,306.1723 903.266,307.8253 902.023,310.9193 C899.091,316.4973 896.456,308.3963 892.137,313.8133 C877.307,303.8913 883.646,298.3413 898.999,291.9993" id="Fill-223" fill="#0542A8" blush:i="0.0.110"/><path d="M598.8671,447.843 C600.6781,460.822 593.7571,464.597 582.4651,478.372 C575.0401,466.351 587.1741,451.731 598.8671,447.843" id="Fill-225" fill="#9BE8FC" blush:i="0.0.111"/><path d="M1027.4259,244.1389 C1028.3529,252.4919 1017.1509,258.8829 1031.5139,258.4639 C1019.5559,262.2409 1011.8539,259.5799 1012.4469,249.5859 C1019.3559,252.0459 1020.4539,244.8209 1027.4259,244.1389" id="Fill-227" fill="#9BE8FC" blush:i="0.0.112"/><path d="M155.4303,631.4719 C153.8273,625.9669 158.4943,617.9589 154.4633,614.4229 C151.4213,610.4129 155.1593,606.1009 160.0673,608.1849 C164.2453,614.8539 164.5423,628.8219 155.4303,631.4719" id="Fill-229" fill="#9BE8FC" blush:i="0.0.113"/><path d="M249.5657,746.3118 C247.1527,743.4828 244.7397,740.6528 242.3237,737.8218 C248.5837,739.7018 259.3597,712.1998 255.8067,730.1968 C258.1127,749.4478 257.7517,731.6768 249.5657,746.3118" id="Fill-231" fill="#9BE8FC" blush:i="0.0.114"/><path d="M277.9241,725.928 C273.0211,731.536 264.8511,731.792 264.1981,722.764 C271.4101,722.447 270.4851,716.152 277.8511,716.5 C271.5461,721.846 273.4001,722.648 277.9241,725.928" id="Fill-233" fill="#0542A8" blush:i="0.0.115"/><path d="M411.3372,218.3957 C413.7882,223.4007 422.1492,233.9047 414.1842,237.1187 C409.8612,235.0517 407.2592,222.2337 401.0302,222.8527 C404.4662,221.3677 407.9012,219.8807 411.3372,218.3957" id="Fill-235" fill="#9BE8FC" blush:i="0.0.116"/><path d="M203.841,805.3577 C207.968,807.8137 213.713,816.1847 206.06,817.7347 C198.198,814.6857 193.833,808.9027 203.841,805.3577" id="Fill-237" fill="#0542A8" blush:i="0.0.117"/><path d="M201.5558,767.4837 C201.4468,760.3077 205.6268,756.3997 211.8018,754.0337 C212.5658,756.3327 199.5828,778.9047 201.5558,767.4837" id="Fill-239" fill="#0542A8" blush:i="0.0.118"/><path d="M177.7373,765.4788 C179.9833,758.3768 179.9273,758.4858 186.8913,762.1028 C188.9783,762.1238 191.7503,759.8748 193.9373,762.4528 C177.5343,776.7948 190.0313,762.2948 177.7373,765.4788" id="Fill-241" fill="#9BE8FC" blush:i="0.0.119"/><path d="M697.5013,422.8489 C691.2833,411.6659 704.8133,415.1819 710.8483,419.7519 C707.5643,425.8589 702.1003,422.4889 697.5013,422.8489" id="Fill-243" fill="#9BE8FC" blush:i="0.0.120"/><path d="M207.4122,792.72 C201.9512,793.782 195.7662,800.545 192.7442,794.977 C194.0972,783.99 201.2082,784.913 207.4122,792.72" id="Fill-245" fill="#9BE8FC" blush:i="0.0.121"/><path d="M599.9871,461.677 C589.8391,459.867 598.7841,452.157 604.1981,456.175 C605.5971,456.474 607.5171,452.637 608.4301,456.539 C607.5071,458.527 602.3041,461.515 599.9871,461.677" id="Fill-247" fill="#0542A8" blush:i="0.0.122"/><path d="M802.9143,336.2893 C806.8223,336.7013 807.5633,339.2783 808.1483,342.6733 C802.0713,342.2303 790.9353,334.5993 802.9143,336.2893" id="Fill-249" fill="#0542A8" blush:i="0.0.123"/><path d="M168.6219,638.8079 C172.8559,641.5189 165.5969,646.4279 162.8649,645.0309 C153.3289,641.2519 161.9449,635.0269 168.6219,638.8079" id="Fill-251" fill="#0542A8" blush:i="0.0.124"/><path d="M732.9528,492.6194 C741.3878,498.2534 734.6828,504.6994 726.8178,504.4794 C728.8638,500.5264 730.9078,496.5724 732.9528,492.6194" id="Fill-253" fill="#9BE8FC" blush:i="0.0.125"/><path d="M1008.5912,270.4036 C998.2402,274.2336 999.2472,268.7806 1002.5282,260.6046 C1004.5492,263.8746 1006.5702,267.1386 1008.5912,270.4036" id="Fill-255" fill="#9BE8FC" blush:i="0.0.126"/><path d="M680.2087,413.6526 C676.1987,415.6376 672.2947,418.5546 668.1627,420.0866 C662.7857,412.9756 675.9257,413.5436 680.2087,413.6526" id="Fill-257" fill="#0542A8" blush:i="0.0.127"/><path d="M406.9651,346.051 C403.9301,351.852 400.6111,341.104 397.6161,338.728 C403.2981,337.895 403.8081,343.661 406.9651,346.051" id="Fill-259" fill="#9BE8FC" blush:i="0.0.128"/><path d="M701.379,384.3508 C703.058,386.1948 704.187,388.4398 705.545,390.5178 C698.69,392.2718 692.284,387.2988 701.379,384.3508" id="Fill-261" fill="#0542A8" blush:i="0.0.129"/><path d="M192.7818,772.2151 C199.3178,772.2321 192.9878,775.8211 190.7658,777.8741 C191.4378,775.9871 192.1098,774.1021 192.7818,772.2151" id="Fill-263" fill="#9BE8FC" blush:i="0.0.130"/><path d="M876.2715,300.5022 C873.6245,301.9212 873.1455,300.5232 872.3585,298.1062 C873.6625,298.9052 874.9665,299.7032 876.2715,300.5022" id="Fill-265" fill="#0542A8" blush:i="0.0.131"/><path d="M358.9609,249.7024 C357.2469,251.1314 355.5339,252.5594 353.8299,253.9864 C355.5469,252.5564 357.2539,251.1294 358.9609,249.7024" id="Fill-267" fill="#9BE8FC" blush:i="0.0.132"/><path d="M963.8879,264.7991 C962.3299,265.2951 960.7729,265.7921 959.2249,266.2851 C960.7849,265.7871 962.3369,265.2931 963.8879,264.7991" id="Fill-269" fill="#0542A8" blush:i="0.0.133"/><path d="M177.5165,765.7337 C177.3325,767.6237 177.1475,769.5117 176.9585,771.3887 C177.2255,769.7537 175.1935,765.9387 177.5165,765.7337" id="Fill-271" fill="#9BE8FC" blush:i="0.0.134"/><path d="M690.5402,389.5022 C689.8912,389.8522 690.2122,389.3412 690.2002,388.9562 C690.2002,388.9562 690.5402,389.5022 690.5402,389.5022" id="Fill-273" fill="#0542A8" blush:i="0.0.135"/><path d="M826.6853,927.6204 C826.2033,929.5164 826.2513,930.3984 825.8333,930.8154 C811.3003,939.6774 842.1543,956.4214 824.6993,954.9014 C814.7773,946.6394 812.3963,953.6624 803.7883,958.9404 C801.6503,950.3944 809.2063,942.5114 797.9783,938.4034 C789.4103,933.4684 795.5883,922.1074 804.1653,929.2884 C812.9023,939.8454 817.8153,916.9674 826.6853,927.6204" id="Fill-275" fill="#0542A8" blush:i="0.0.136"/><path d="M659.7588,1020.679 C658.0278,1008.831 678.3668,1005.503 678.5968,1018.001 C679.1168,1031.125 660.2748,1035.694 659.7588,1020.679" id="Fill-277" fill="#0542A8" blush:i="0.0.137"/><path d="M1007.4601,988.5999 C996.6351,987.8129 996.8291,971.1279 1007.9141,971.2719 C1018.9521,971.6339 1018.1461,989.1109 1007.4601,988.5999" id="Fill-279" fill="#0542A8" blush:i="0.0.138"/><path d="M1004.4838,1149.22 C987.3948,1171.527 1007.1248,1167.284 1014.7418,1184.153 C1003.9698,1186.654 990.5118,1166.044 983.6878,1181.035 C981.2268,1183.652 979.1948,1189.067 975.0258,1186.332 C968.5098,1178.914 988.8498,1170.431 973.7228,1164.409 C955.8718,1155.77 966.8798,1144.948 980.7668,1155.533 C990.0998,1161.921 997.7958,1128.986 1004.4838,1149.22" id="Fill-281" fill="#0542A8" blush:i="0.0.139"/><path d="M812.4946,1149.2825 C813.3816,1163.4195 790.9266,1164.0045 791.3826,1149.4895 C789.3896,1128.2975 811.7226,1133.7455 812.4946,1149.2825" id="Fill-283" fill="#0542A8" blush:i="0.0.140"/><path d="M866.36,702.6214 C863.289,700.7234 853.736,701.4134 855.091,697.2514 C859.545,697.6464 865.938,693.6044 866.36,702.6214" id="Fill-285" fill="#9BE8FC" blush:i="0.0.141"/><path d="M232.0639,693.055 C228.2339,691.263 226.5809,689.561 223.8069,693.04 C227.2159,697.441 226.6999,698.295 232.0639,693.055 M242.3319,624.58 C235.4239,636.767 249.3759,633.018 252.9889,639.696 C259.1429,657.27 275.8169,659.588 263.9689,683.007 C265.9829,690.847 293.5879,699.386 276.5509,708.673 C263.3319,708.343 258.0419,688.99 245.4689,705.497 C233.1159,716.322 181.7529,717.021 207.6929,692.837 C221.0159,681.798 252.3809,690.085 251.5619,666.951 C243.5039,655.7 184.7099,688.574 210.9889,654.83 C219.9599,650.919 230.6819,651.339 239.2099,647.064 C229.6529,639.331 220.9629,641.788 228.9689,627.815 C213.6479,580.989 224.4849,576.837 242.3319,624.58" id="Fill-287" fill="#161515" blush:i="0.0.142"/><path d="M151.6444,476.4954 C135.1204,498.5554 131.9294,449.6224 124.8214,439.3244 C117.4944,410.1084 97.1034,379.8024 100.3594,349.9184 C129.3224,382.1944 134.4644,435.6574 151.6444,476.4954" id="Fill-289" fill="#161515" blush:i="0.0.143"/><path d="M333.316,650.5442 C322.936,667.1082 313.021,630.3792 307.623,622.0792 C304.642,608.9812 261.231,536.1142 299.114,556.0792 C313.585,586.3572 325.411,617.6412 333.316,650.5442" id="Fill-291" fill="#161515" blush:i="0.0.144"/><path d="M256.1548,441.718 C245.6148,472.56 199.2098,319 203.2078,309.449 C233.7208,341.762 238.1308,399.493 256.1548,441.718" id="Fill-293" fill="#161515" blush:i="0.0.145"/><path d="M173.2832,417.509 C168.9922,390.291 143.6162,355.805 151.0222,331.461 C170.8872,340.995 173.6432,390.965 185.6892,412.206 C180.5802,416.571 181.1892,429.534 173.2832,417.509" id="Fill-295" fill="#161515" blush:i="0.0.146"/><path d="M176.6385,525.4075 C185.7585,531.7985 196.2485,526.3305 206.2425,526.5395 C219.0325,534.4105 195.3095,544.3355 187.8295,546.3905 C175.8695,548.6155 176.6175,534.9025 168.1215,530.7045 C166.7575,524.9585 176.3505,513.9075 176.6385,525.4075" id="Fill-297" fill="#161515" blush:i="0.0.147"/><path d="M234.4098,526.8899 C213.8368,516.3399 245.6578,507.9369 255.2448,505.7689 C272.8948,515.1249 244.6138,525.2159 234.4098,526.8899" id="Fill-299" fill="#161515" blush:i="0.0.148"/><path d="M260.5199,571.5666 C259.7549,558.6066 283.3909,571.8646 273.1469,582.5566 C249.5959,576.2566 272.6219,571.9306 260.5199,571.5666" id="Fill-301" fill="#9BE8FC" blush:i="0.0.149"/><path d="M359.3981,675.5813 C362.0471,686.4543 352.4061,695.3113 343.8761,683.9723 C346.4941,678.2123 353.4271,675.9603 359.3981,675.5813" id="Fill-303" fill="#0542A8" blush:i="0.0.150"/><path d="M193.5096,660.8635 C190.9346,683.1695 175.6266,648.3925 189.0896,653.1365 C190.9096,655.8265 192.3476,658.7725 193.5096,660.8635" id="Fill-305" fill="#0542A8" blush:i="0.0.151"/><path d="M176.6385,525.4075 C176.1885,517.9395 159.1175,501.7575 176.6015,505.1005 C175.3535,512.5185 178.9495,517.8035 176.6385,525.4075" id="Fill-307" fill="#0542A8" blush:i="0.0.152"/><path d="M213.6691,481.3694 C207.9871,483.9814 211.0691,488.2694 210.8101,492.0824 C206.5761,496.6324 199.7971,489.7484 199.2961,485.0754 C199.7841,484.2404 201.1221,482.9114 201.2741,483.0154 C207.4271,486.2704 207.6121,473.2924 213.6691,481.3694" id="Fill-309" fill="#161515" blush:i="0.0.153"/><path d="M308.3508,644.4914 C308.8208,657.3364 299.6958,648.9514 291.7158,652.3664 C294.1478,646.4994 302.5918,639.6204 308.3508,644.4914" id="Fill-311" fill="#9BE8FC" blush:i="0.0.154"/><path d="M177.2695,507.9289 C175.6345,502.9079 180.5365,500.9319 183.6885,495.2269 C181.0425,506.4919 194.1325,513.4249 177.2695,507.9289" id="Fill-313" fill="#161515" blush:i="0.0.155"/><path d="M164.7213,645.5666 C173.4033,635.2496 183.2173,657.9336 169.4893,656.2126 C176.0153,651.2786 165.9433,651.0156 166.9503,647.5006 C167.0653,647.1016 165.5053,646.2226 164.7213,645.5666" id="Fill-315" fill="#161515" blush:i="0.0.156"/><path d="M206.1334,503.1145 C198.7124,511.1325 198.6594,503.5185 194.7504,497.5975 C199.8214,493.6395 201.9134,500.1765 206.1334,503.1145" id="Fill-317" fill="#161515" blush:i="0.0.157"/><path d="M196.1236,488.1731 C193.9276,489.1991 192.4966,490.1151 192.3166,489.9141 C189.4496,486.7071 183.3526,495.9901 182.4876,487.6321 C184.3826,476.1461 189.3956,481.0611 196.1236,488.1731" id="Fill-319" fill="#9BE8FC" blush:i="0.0.158"/><path d="M220.1802,521.5764 C217.0642,531.2724 214.9122,524.1334 214.1312,519.4694 C215.0772,514.1054 218.2362,519.7834 220.1802,521.5764" id="Fill-321" fill="#0542A8" blush:i="0.0.159"/><path d="M174.013,648.1965 C171.795,643.2625 175.704,638.5475 178.697,634.7595 C182.3,640.2235 176.536,643.7735 174.013,648.1965" id="Fill-323" fill="#0542A8" blush:i="0.0.160"/><path d="M260.52,571.5666 C270.599,571.6396 258.598,575.5976 261.47,576.9326 C260.328,586.0106 255.199,574.7266 260.52,571.5666" id="Fill-325" fill="#0542A8" blush:i="0.0.161"/><path d="M305.0739,686.3216 C302.6749,688.6846 296.2029,691.9996 295.0719,687.3726 C298.2679,687.1706 302.8549,683.2736 305.0739,686.3216" id="Fill-327" fill="#0542A8" blush:i="0.0.162"/><path d="M182.3974,420.092 C179.1464,415.652 184.4654,414.769 185.6824,412.211 C185.8114,415.369 190.0394,420.215 182.3974,420.092" id="Fill-329" fill="#0542A8" blush:i="0.0.163"/><path d="M180.0434,710.7102 C176.0784,705.2062 177.1164,703.6282 180.3484,699.0982 C183.9104,704.0212 184.5424,704.0682 180.0434,710.7102" id="Fill-331" fill="#9BE8FC" blush:i="0.0.164"/><path d="M225.4828,502.4211 C226.4108,499.6501 224.0788,491.4131 227.5678,491.9211 C230.0198,495.0861 229.5918,502.3681 225.4828,502.4211" id="Fill-333" fill="#9BE8FC" blush:i="0.0.165"/><path d="M226.1736,502.9163 C225.9586,505.8233 224.0556,511.3793 220.6286,507.8453 C221.8456,506.0543 223.7156,501.7233 226.1736,502.9163" id="Fill-335" fill="#9BE8FC" blush:i="0.0.166"/><path d="M348.9744,678.676 C347.5824,679.729 346.1904,680.781 344.8014,681.83 C346.1934,680.778 347.5844,679.727 348.9744,678.676" id="Fill-337" fill="#9BE8FC" blush:i="0.0.167"/><path d="M173.2832,417.509 C173.7542,418.298 174.2242,419.086 174.6902,419.859 C174.2182,419.065 173.7512,418.286 173.2832,417.509" id="Fill-339" fill="#0542A8" blush:i="0.0.168"/><path d="M176.515,421.72 C178.231,422.019 179.947,422.317 181.651,422.619 C179.931,422.323 178.223,422.021 176.515,421.72" id="Fill-341" fill="#0542A8" blush:i="0.0.169"/><path d="M352.9807,676.512 C352.4727,676.667 351.9637,676.824 351.4637,676.974 C351.9747,676.817 352.4777,676.664 352.9807,676.512" id="Fill-343" fill="#9BE8FC" blush:i="0.0.170"/><path d="M831.0634,732.5178 C834.9774,738.8038 835.5944,740.2608 830.5804,744.5578 C823.3454,740.1908 825.3584,738.6628 831.0634,732.5178" id="Fill-345" fill="#9BE8FC" blush:i="0.0.171"/><path d="M618.8335,678.762 C607.9355,680.744 595.2875,679.789 585.1175,683.765 C578.7575,691.45 566.2455,680.432 579.3965,681.243 C592.3305,676.026 567.1405,672.875 579.8465,668.426 C582.5225,660.291 573.1565,640.278 579.7755,637.663 C580.6335,640.644 584.6445,642.872 581.8015,646.788 C579.0395,650.593 581.2835,653.655 582.6455,657.6 C585.2055,665.867 585.7565,656.823 590.7595,657.801 C590.3905,658.964 590.3725,660.619 589.5785,661.187 C573.8605,665.444 590.9495,676.237 595.5365,666.842 C591.4275,662.933 595.1885,660.116 596.7645,657.059 C600.7995,653.533 594.1805,646.002 603.2085,647.423 C614.6465,647.903 610.8705,655.187 613.1195,663.407 C625.4735,670.033 609.1165,667.291 618.8335,678.762" id="Fill-347" fill="#161515" blush:i="0.0.172"/><path d="M571.0591,688.9114 C556.8061,712.5854 553.2211,660.3824 548.5801,693.6324 C536.3021,691.8174 552.5271,675.1874 539.1551,677.0144 C541.8551,676.0954 539.5881,667.5124 543.5491,669.8914 C559.7551,677.7324 535.1721,638.4024 562.5151,651.2634 C558.5441,656.5654 561.7321,666.4484 556.2721,672.2364 C548.0451,676.1774 558.7021,686.5874 560.4691,675.6554 C561.0461,675.3094 562.2461,676.0014 563.1711,676.2344 C560.8931,683.5144 569.4181,684.0704 571.0591,688.9114" id="Fill-349" fill="#161515" blush:i="0.0.173"/><path d="M543.356,709.8596 C538.877,715.5806 531.163,700.9476 527.98,697.3006 C530.277,685.1206 540.287,706.1156 543.356,709.8596" id="Fill-351" fill="#161515" blush:i="0.0.174"/><path d="M623.7338,639.3752 C635.5528,643.5782 624.1798,648.2762 622.2448,655.7562 C619.1768,649.2192 616.3038,644.3872 623.7338,639.3752" id="Fill-353" fill="#161515" blush:i="0.0.175"/><path d="M532.3418,650.1594 C531.5568,658.8474 517.1138,642.8884 526.3438,642.1764 C532.9168,641.1434 530.8208,646.8294 532.3418,650.1594" id="Fill-355" fill="#161515" blush:i="0.0.176"/><path d="M914.9194,839.3206 C913.8224,827.7806 935.6784,827.6056 934.8124,840.1006 C935.0934,855.3126 914.6334,852.3436 914.9194,839.3206" id="Fill-357" fill="#9BE8FC" blush:i="0.0.177"/><path d="M286.6066,936.6975 C296.8276,936.0385 303.1476,948.3485 293.5166,952.6585 C287.3776,953.2055 278.8806,940.9825 286.6066,936.6975" id="Fill-359" fill="#0542A8" blush:i="0.0.178"/><path d="M101.4608,1022.7014 C97.8648,1015.8914 91.0838,1011.0514 98.4358,1006.9434 C108.8408,1007.1124 107.4138,1014.7614 101.4608,1022.7014" id="Fill-361" fill="#0542A8" blush:i="0.0.179"/><path d="M416.5221,1131.7805 C412.2101,1137.3565 411.1271,1134.4755 407.3161,1131.3525 C410.6641,1125.3325 412.1791,1128.3845 416.5221,1131.7805" id="Fill-363" fill="#0C86DD" blush:i="0.0.180"/><path d="M814.7448,360.1096 C825.8018,371.8326 806.9098,370.2486 808.2768,376.2596 C808.0678,377.4056 817.2398,383.9096 817.5878,380.7146 C813.4948,388.8156 806.0828,388.1756 798.4808,392.0756 C824.2248,374.6596 785.4318,370.8126 814.7448,360.1096" id="Fill-365" fill="#0542A8" blush:i="0.0.181"/><path d="M761.4044,510.095 C788.4904,515.089 730.5884,527.973 743.5114,508.875 C743.8824,477.673 746.5464,525.319 761.4044,510.095" id="Fill-367" fill="#0542A8" blush:i="0.0.182"/><path d="M847.5646,356.0686 C838.2606,355.8886 853.2926,348.6286 843.9126,346.1496 C838.9726,344.8716 843.1936,338.6146 845.9106,335.4186 C847.6326,336.5146 850.1556,338.9706 850.9526,338.5016 C860.5746,332.8246 859.4666,340.8066 860.5106,345.8286 C860.9626,348.0026 864.3416,351.2086 858.9206,351.9586 C852.6436,347.3246 851.8176,347.6236 847.5646,356.0686" id="Fill-369" fill="#9BE8FC" blush:i="0.0.183"/><path d="M631.3639,434.385 C633.2099,434.868 635.0549,435.352 636.9009,435.835 C631.9619,440.923 638.9519,453.567 627.4649,449.703 C618.9059,449.802 625.9209,445.134 623.7129,440.254 C628.5119,441.241 629.7869,437.616 631.3639,434.385" id="Fill-371" fill="#0542A8" blush:i="0.0.184"/><path d="M725.1956,412.1057 C720.0336,401.8817 720.0716,401.3197 726.2276,396.8197 C727.2436,401.4287 728.8856,405.3487 734.7866,404.5757 C740.3286,413.6947 733.1856,415.0277 725.1956,412.1057" id="Fill-373" fill="#9BE8FC" blush:i="0.0.185"/><path d="M716.9707,402.0676 C717.9707,408.3386 717.3667,411.4966 710.5647,412.0706 C700.0167,411.3086 714.9377,393.0426 716.9707,402.0676" id="Fill-375" fill="#161515" blush:i="0.0.186"/><path d="M814.7448,360.1096 C811.6748,363.3386 805.3108,361.4496 803.8248,367.1366 C798.9988,353.9036 807.8128,344.7766 814.7448,360.1096" id="Fill-377" fill="#161515" blush:i="0.0.187"/><path d="M761.4044,510.095 C753.0794,518.925 745.9404,507.036 747.0504,498.353 C751.8314,502.267 756.6174,506.181 761.4044,510.095" id="Fill-379" fill="#161515" blush:i="0.0.188"/><path d="M730.6617,529.9075 C729.7197,538.6545 725.6227,535.9165 721.7607,530.2895 C731.4267,530.3545 723.8797,521.8075 727.4887,518.8445 C735.1797,514.0845 731.5927,526.2505 730.6617,529.9075" id="Fill-381" fill="#9BE8FC" blush:i="0.0.189"/><path d="M730.6617,529.9075 C731.9537,526.5405 731.0177,519.7595 735.5437,519.7415 C738.3487,524.8025 739.5317,532.6345 730.6617,529.9075" id="Fill-383" fill="#161515" blush:i="0.0.190"/><path d="M734.7866,404.5754 C728.8856,405.3484 727.2436,401.4294 726.2276,396.8194 C732.5016,394.1804 741.7476,397.9144 734.7866,404.5754" id="Fill-385" fill="#161515" blush:i="0.0.191"/><path d="M886.9408,308.1047 C902.3118,321.9787 874.6918,320.3547 878.9438,311.3867 C882.1878,311.6997 886.7508,315.2287 886.9408,308.1047" id="Fill-387" fill="#161515" blush:i="0.0.192"/><path d="M688.785,401.9446 C690.244,395.9596 694.004,394.4306 699.813,394.8306 C701.485,399.7506 693.392,404.5956 688.785,401.9446" id="Fill-389" fill="#161515" blush:i="0.0.193"/><path d="M741.2327,386.4885 C749.4967,382.7685 748.4857,393.5165 753.7327,394.5065 C748.5977,401.7505 743.1687,391.4195 741.2327,386.4885" id="Fill-391" fill="#9BE8FC" blush:i="0.0.194"/><path d="M818.2024,344.7092 C814.0334,334.5642 825.0214,340.9472 830.3634,341.6332 C841.3054,344.6442 822.7964,345.9482 818.2024,344.7092" id="Fill-393" fill="#9BE8FC" blush:i="0.0.195"/><path d="M785.8398,368.9309 C781.2478,371.3849 777.0978,364.7099 778.7978,360.1309 C782.9788,357.7279 783.2768,365.5439 785.8398,368.9309" id="Fill-395" fill="#161515" blush:i="0.0.196"/><path d="M927.9382,311.8391 C922.2932,306.7601 929.4822,300.4271 935.4572,302.8911 C938.0592,305.9131 930.1302,308.7891 927.9382,311.8391" id="Fill-397" fill="#9BE8FC" blush:i="0.0.197"/><path d="M819.301,344.5539 C826.662,342.7009 835.875,351.5969 825.293,353.8259 C823.456,352.7549 823.297,345.5099 819.301,344.5539" id="Fill-399" fill="#161515" blush:i="0.0.198"/><path d="M631.3639,434.385 C624.2079,450.83 620.7029,429.566 625.9319,428.834 C629.2039,428.752 632.5989,429.573 631.3639,434.385" id="Fill-401" fill="#161515" blush:i="0.0.199"/><path d="M878.9448,311.3879 C877.2948,313.7979 875.5798,316.1589 873.8598,318.5199 C871.5288,313.2619 873.2328,304.8329 878.9448,311.3879" id="Fill-403" fill="#0542A8" blush:i="0.0.200"/><path d="M636.9008,435.8352 C638.6198,430.6582 639.8708,426.0502 646.3038,425.9622 C645.3438,431.4142 641.7328,436.0162 636.9008,435.8352" id="Fill-405" fill="#161515" blush:i="0.0.201"/><path d="M725.1956,412.1057 C728.4456,412.7617 731.6946,413.4177 734.9446,414.0627 C734.0846,422.4717 716.5716,418.5737 725.1956,412.1057" id="Fill-407" fill="#161515" blush:i="0.0.202"/><path d="M845.7224,335.5403 C840.0544,335.6423 843.2974,330.3283 841.2724,328.2163 C849.9834,325.4303 851.9444,330.9983 845.7224,335.5403" id="Fill-409" fill="#9BE8FC" blush:i="0.0.203"/><path d="M670.3167,431.7971 C666.9727,429.4971 663.6287,427.1981 659.7947,424.5621 C668.9337,423.0101 668.5877,424.3331 670.3167,431.7971" id="Fill-411" fill="#161515" blush:i="0.0.204"/><path d="M847.5646,356.0686 C851.8176,347.6236 852.6436,347.3246 858.9206,351.9586 C856.4566,356.9686 851.5866,355.3476 847.5646,356.0686" id="Fill-413" fill="#161515" blush:i="0.0.205"/><path d="M819.301,344.5539 C826.598,348.8609 817.104,351.8889 812.476,349.2569 C814.763,347.8709 816.656,344.9959 819.301,344.5539" id="Fill-415" fill="#0542A8" blush:i="0.0.206"/><path d="M999.1486,276.011 C1000.3626,278.766 1005.1916,283.01 1000.4096,282.963 C998.4406,280.499 995.4586,278.937 999.1486,276.011" id="Fill-417" fill="#9BE8FC" blush:i="0.0.207"/><path d="M802.6509,358.9104 C802.8969,360.3194 803.1429,361.7284 803.3869,363.1194 C803.1399,361.7034 802.8959,360.3064 802.6509,358.9104" id="Fill-419" fill="#0542A8" blush:i="0.0.208"/><path d="M809.2466,351.3079 C809.0496,351.5479 809.0436,350.9639 808.9716,350.8909 L809.2466,351.3079 Z" id="Fill-421" fill="#0542A8" blush:i="0.0.209"/><path d="M400.9148,222.636 C407.8818,223.123 409.6308,234.742 414.1828,237.117 C419.6718,236.514 415.9038,231.507 417.1338,228.649 C420.4668,230.195 425.6348,229.033 422.9658,233.996 C420.1158,238.558 423.8328,245.906 417.4778,248.565 C409.8888,252.975 409.8438,244.168 405.2008,239.653 C397.8018,258.494 397.6858,231.153 388.1808,243.356 C385.6518,235.283 397.0718,229.269 400.9148,222.636" id="Fill-423" fill="#161515" blush:i="0.0.210"/><path d="M365.4659,255.7454 C374.1679,245.7324 378.0469,257.6474 385.7619,260.4514 C384.0469,265.5004 385.0639,266.3604 389.2179,262.8544 C392.1679,257.8604 405.1959,273.9444 396.7799,274.5514 C391.2449,271.1634 387.5079,277.7774 382.5359,276.8974 C382.2169,276.3474 382.0279,275.5014 381.5579,275.2934 C365.3739,272.0244 389.9979,266.8244 376.6139,261.6544 C368.0439,264.8854 370.2899,261.5694 365.4659,255.7454" id="Fill-425" fill="#161515" blush:i="0.0.211"/><path d="M434.7535,341.9524 C429.0775,339.3674 430.6165,347.6854 423.9165,348.8214 C422.2585,336.9074 421.1015,325.5584 436.2695,324.0164 C440.6605,315.1684 434.8695,332.2874 441.3115,331.9794 C442.5725,334.5454 437.4825,339.0984 434.7535,341.9524" id="Fill-427" fill="#161515" blush:i="0.0.212"/><path d="M368.9199,263.7532 C373.2109,260.8142 384.0529,261.3112 379.7939,268.0522 C371.0619,273.1992 377.8269,273.6452 381.5579,275.2932 C384.7739,284.8052 351.3009,269.9112 365.3719,268.2662 C366.7309,268.0862 367.7459,265.3232 368.9199,263.7532" id="Fill-429" fill="#9BE8FC" blush:i="0.0.213"/><path d="M431.2408,243.7991 C435.2238,248.0361 444.7578,251.1941 438.3458,256.7551 C432.0048,253.5311 425.7788,252.2781 431.2408,243.7991" id="Fill-431" fill="#161515" blush:i="0.0.214"/><path d="M456.2128,251.6858 C459.7558,256.4698 461.5628,259.0698 463.7598,263.8888 C457.1598,264.6168 454.2598,258.4448 456.2128,251.6858" id="Fill-433" fill="#0542A8" blush:i="0.0.215"/><path d="M469.8005,248.133 C457.2945,244.029 465.8335,240.627 473.5255,238.912 C478.1795,241.814 471.6355,245.332 469.8005,248.133" id="Fill-435" fill="#161515" blush:i="0.0.216"/><path d="M421.6477,321.4036 C417.7527,316.2376 417.5227,313.9296 422.8087,310.3916 C427.0837,315.0686 427.2617,317.0796 421.6477,321.4036" id="Fill-437" fill="#161515" blush:i="0.0.217"/><path d="M439.1715,307.6262 C436.6325,310.6002 433.9675,315.5402 433.3905,309.5922 C434.6965,307.4452 436.4315,305.2012 439.1715,307.6262" id="Fill-439" fill="#0542A8" blush:i="0.0.218"/><path d="M381.8521,249.9866 C379.9101,249.6736 377.7971,249.7166 376.0961,248.9006 C369.0491,240.4896 398.1241,245.7316 381.8521,249.9866" id="Fill-441" fill="#161515" blush:i="0.0.219"/><path d="M434.7535,341.9524 C442.3855,331.8434 439.6845,343.2274 441.1175,350.8874 C438.4265,347.1084 436.5895,344.5304 434.7535,341.9524" id="Fill-443" fill="#9BE8FC" blush:i="0.0.220"/><path d="M391.4592,260.9866 C380.7922,269.6116 388.7502,262.2096 383.4292,258.8806 C386.1282,259.5796 388.7942,260.2836 391.4592,260.9866" id="Fill-445" fill="#9BE8FC" blush:i="0.0.221"/><path d="M380.8721,258.5657 C379.8021,257.4147 378.7321,256.2627 377.6661,255.1207 C380.7391,254.4087 382.2401,255.1497 380.8721,258.5657" id="Fill-447" fill="#9BE8FC" blush:i="0.0.222"/><path d="M383.4905,248.9553 C384.4585,248.8073 385.4265,248.6583 386.3935,248.5123 C385.4245,248.6603 384.4575,248.8083 383.4905,248.9553" id="Fill-449" fill="#9BE8FC" blush:i="0.0.223"/><path d="M368.0306,258.6047 C368.3476,259.4907 368.6636,260.3757 368.9836,261.2577 C368.6686,260.3717 368.3496,259.4877 368.0306,258.6047" id="Fill-451" fill="#9BE8FC" blush:i="0.0.224"/><path d="M441.9812,332.5559 C441.2072,332.8579 441.1162,332.7849 441.3112,331.9799 C441.9382,331.8829 442.1882,331.8289 441.9812,332.5559" id="Fill-453" fill="#9BE8FC" blush:i="0.0.225"/><path d="M1048.1039,240.4817 C1048.9999,241.6137 1050.1099,242.7967 1050.0049,242.9187 C1045.4469,249.8817 1040.5879,244.7417 1048.1039,240.4817" id="Fill-455" fill="#161515" blush:i="0.0.226"/><path d="M232.0639,693.055 C226.7019,698.295 227.2129,697.441 223.8069,693.038 C226.5819,689.561 228.2329,691.262 232.0639,693.055" id="Fill-457" fill="#0542A8" blush:i="0.0.227"/></g></g></svg>